<?xml version="1.0" encoding="UTF-8" standalone="no"?>
<!DOCTYPE svg PUBLIC "-//W3C//DTD SVG 1.1//EN" "http://www.w3.org/Graphics/SVG/1.1/DTD/svg11.dtd">
<svg width="100%" height="100%" viewBox="0 0 3544 2000" version="1.1" xmlns="http://www.w3.org/2000/svg" xmlns:xlink="http://www.w3.org/1999/xlink" xml:space="preserve" xmlns:serif="http://www.serif.com/" style="fill-rule:evenodd;clip-rule:evenodd;stroke-linecap:round;stroke-linejoin:round;stroke-miterlimit:1.5;">
    <path id="Board-Background" serif:id="Board Background" d="M1742.34,242.217C1742.34,240.717 1741.12,239.501 1739.62,239.501L1503.84,239.501C1502.34,239.501 1501.13,240.717 1501.13,242.217L1501.13,1757.39C1501.13,1758.89 1502.34,1760.11 1503.84,1760.11L1739.62,1760.11C1741.12,1760.11 1742.34,1758.89 1742.34,1757.39L1742.34,242.217ZM1739.62,242.217L1503.84,242.217L1503.84,1757.39L1739.62,1757.39L1739.62,242.217Z" style="fill:rgb(123,97,170);"/>
    <rect x="1532.74" y="875.4" width="178.072" height="248.829" style="fill:none;stroke:rgb(123,97,170);stroke-width:8.33px;"/>
    <circle cx="1621.54" cy="632.853" r="55.338" style="fill:none;stroke:rgb(123,97,170);stroke-width:8.33px;"/>
    <circle cx="1621.54" cy="1543.21" r="55.338" style="fill:none;stroke:rgb(123,97,170);stroke-width:8.33px;"/>
    <path d="M1487.49,908.652L1470.87,925.277L1470.87,958.527L1487.49,975.152L1594.6,975.152L1594.6,908.652L1487.49,908.652ZM1532.25,923.02C1542.67,923.02 1551.13,931.481 1551.13,941.902C1551.13,952.324 1542.67,960.785 1532.25,960.785C1521.83,960.785 1513.37,952.324 1513.37,941.902C1513.37,931.481 1521.83,923.02 1532.25,923.02Z" style="fill:rgb(183,183,186);stroke:rgb(166,166,166);stroke-width:2.52px;"/>
    <path d="M1637.02,525.566L1628.7,516.631L1612.08,516.631L1603.77,525.566L1603.77,583.131L1637.02,583.131L1637.02,525.566ZM1629.83,549.619C1629.83,555.22 1625.6,559.767 1620.39,559.767C1615.18,559.767 1610.95,555.22 1610.95,549.619C1610.95,544.018 1615.18,539.471 1620.39,539.471C1625.6,539.471 1629.83,544.018 1629.83,549.619Z" style="fill:rgb(183,183,186);stroke:rgb(166,166,166);stroke-width:2.52px;"/>
    <path d="M1520.37,616.228L1511.43,624.541L1511.43,641.166L1520.37,649.478L1577.93,649.478L1577.93,616.228L1520.37,616.228ZM1544.42,623.412C1550.02,623.412 1554.57,627.642 1554.57,632.853C1554.57,638.064 1550.02,642.294 1544.42,642.294C1538.82,642.294 1534.27,638.064 1534.27,632.853C1534.27,627.642 1538.82,623.412 1544.42,623.412Z" style="fill:rgb(183,183,186);stroke:rgb(166,166,166);stroke-width:2.52px;"/>
    <path d="M1756.05,1030.16L1772.68,1046.79L1772.68,1080.04L1756.05,1096.66L1648.94,1096.66L1648.94,1030.16L1756.05,1030.16ZM1711.29,1044.53C1700.87,1044.53 1692.41,1052.99 1692.41,1063.41C1692.41,1073.83 1700.87,1082.29 1711.29,1082.29C1721.72,1082.29 1730.18,1073.83 1730.18,1063.41C1730.18,1052.99 1721.72,1044.53 1711.29,1044.53Z" style="fill:rgb(183,183,186);stroke:rgb(166,166,166);stroke-width:2.52px;"/>
    <path d="M1756.05,908.652L1772.68,925.277L1772.68,958.527L1756.05,975.152L1648.94,975.152L1648.94,908.652L1756.05,908.652ZM1711.29,923.02C1700.87,923.02 1692.41,931.481 1692.41,941.902C1692.41,952.324 1700.87,960.785 1711.29,960.785C1721.72,960.785 1730.18,952.324 1730.18,941.902C1730.18,931.481 1721.72,923.02 1711.29,923.02Z" style="fill:rgb(183,183,186);stroke:rgb(166,166,166);stroke-width:2.52px;"/>
    <path d="M1722.63,649.478L1731.56,641.166L1731.56,624.541L1722.63,616.228L1665.06,616.228L1665.06,649.478L1722.63,649.478ZM1698.57,642.294C1692.97,642.294 1688.42,638.064 1688.42,632.853C1688.42,627.642 1692.97,623.412 1698.57,623.412C1704.17,623.412 1708.72,627.642 1708.72,632.853C1708.72,638.064 1704.17,642.294 1698.57,642.294Z" style="fill:rgb(183,183,186);stroke:rgb(166,166,166);stroke-width:2.52px;"/>
    <g>
        <path d="M1637.02,1430.39L1628.7,1421.45L1612.08,1421.45L1603.77,1430.39L1603.77,1487.95L1637.02,1487.95L1637.02,1430.39ZM1629.83,1454.44C1629.83,1460.04 1625.6,1464.59 1620.39,1464.59C1615.18,1464.59 1610.95,1460.04 1610.95,1454.44C1610.95,1448.84 1615.18,1444.29 1620.39,1444.29C1625.6,1444.29 1629.83,1448.84 1629.83,1454.44Z" style="fill:rgb(183,183,186);stroke:rgb(166,166,166);stroke-width:2.52px;"/>
        <path d="M1520.37,1521.05L1511.43,1529.36L1511.43,1545.99L1520.37,1554.3L1577.93,1554.3L1577.93,1521.05L1520.37,1521.05ZM1544.42,1528.23C1550.02,1528.23 1554.57,1532.46 1554.57,1537.67C1554.57,1542.88 1550.02,1547.12 1544.42,1547.12C1538.82,1547.12 1534.27,1542.88 1534.27,1537.67C1534.27,1532.46 1538.82,1528.23 1544.42,1528.23Z" style="fill:rgb(183,183,186);stroke:rgb(166,166,166);stroke-width:2.52px;"/>
        <path d="M1722.63,1554.3L1731.56,1545.99L1731.56,1529.36L1722.63,1521.05L1665.06,1521.05L1665.06,1554.3L1722.63,1554.3ZM1698.57,1547.12C1692.97,1547.12 1688.42,1542.88 1688.42,1537.67C1688.42,1532.46 1692.97,1528.23 1698.57,1528.23C1704.17,1528.23 1708.72,1532.46 1708.72,1537.67C1708.72,1542.88 1704.17,1547.12 1698.57,1547.12Z" style="fill:rgb(183,183,186);stroke:rgb(166,166,166);stroke-width:2.52px;"/>
    </g>
    <path d="M1620.39,549.881L1381.32,549.881L1381.32,941.902L1532.74,941.902" style="fill:none;stroke:rgb(27,27,27);stroke-width:18.75px;"/>
    <path d="M1381.32,941.902L1381.32,1454.7L1621.54,1454.7" style="fill:none;stroke:rgb(27,27,27);stroke-width:18.75px;"/>
    <path d="M1710.81,1063.41L1878.57,1063.41L1878.57,1657.62L1544.68,1657.62L1544.68,1537.67" style="fill:none;stroke:rgb(216,78,90);stroke-width:18.75px;"/>
    <path d="M1878.57,1063.41L1878.57,703.182L1544.68,703.182L1544.68,632.853" style="fill:none;stroke:rgb(216,78,90);stroke-width:18.75px;"/>
    <path d="M2105.74,521.756L2161.99,549.881L2105.74,578.006L2105.74,521.756Z" style="fill:rgb(27,27,27);"/>
    <path d="M1620.39,549.881L2116.99,549.881" style="fill:none;stroke:rgb(27,27,27);stroke-width:18.75px;"/>
    <path d="M2105.74,913.777L2161.99,941.902L2105.74,970.027L2105.74,913.777Z" style="fill:rgb(2,129,255);"/>
    <path d="M1711.62,941.902L2116.99,941.902" style="fill:none;stroke:rgb(2,129,255);stroke-width:18.75px;"/>
    <path d="M1931.09,512.951L1931.66,512.951L1938.33,481.524L1942.31,481.524L1935.26,514.655L1927.45,514.655L1925.55,483.228L1924.99,483.228L1918.31,514.655L1914.34,514.655L1921.39,481.524L1929.2,481.524L1931.09,512.951Z" style="fill-rule:nonzero;"/>
    <path d="M1948.13,504.053C1948.07,504.305 1948.02,504.589 1947.99,504.905C1947.96,505.22 1947.94,505.551 1947.94,505.899C1947.94,507.634 1948.44,509.062 1949.45,510.182C1950.47,511.302 1952.07,511.862 1954.28,511.862C1955.39,511.862 1956.37,511.736 1957.24,511.483C1958.11,511.231 1958.86,510.876 1959.49,510.419C1960.12,509.961 1960.66,509.44 1961.12,508.857C1961.58,508.273 1961.97,507.65 1962.28,506.987L1965.31,508.691C1964.87,509.606 1964.32,510.466 1963.65,511.27C1962.99,512.075 1962.2,512.777 1961.29,513.377C1960.37,513.976 1959.32,514.449 1958.12,514.797C1956.92,515.144 1955.55,515.317 1954,515.317C1952.58,515.317 1951.28,515.104 1950.09,514.678C1948.91,514.252 1947.89,513.637 1947.04,512.832C1946.19,512.028 1945.53,511.042 1945.05,509.874C1944.58,508.707 1944.34,507.382 1944.34,505.899C1944.34,503.911 1944.66,501.994 1945.29,500.148C1945.92,498.302 1946.84,496.669 1948.04,495.249C1949.23,493.83 1950.72,492.686 1952.48,491.818C1954.25,490.95 1956.26,490.516 1958.5,490.516C1960.07,490.516 1961.44,490.761 1962.61,491.25C1963.78,491.739 1964.74,492.402 1965.5,493.238C1966.26,494.074 1966.83,495.021 1967.2,496.078C1967.58,497.135 1967.77,498.231 1967.77,499.367C1967.77,500.219 1967.68,501.039 1967.49,501.828L1966.97,504.053L1948.13,504.053ZM1958.02,494.019C1956.92,494.019 1955.88,494.185 1954.92,494.516C1953.96,494.847 1953.08,495.313 1952.3,495.912C1951.51,496.512 1950.83,497.214 1950.26,498.018C1949.69,498.823 1949.25,499.698 1948.93,500.645L1963.99,500.645C1964.08,500.14 1964.13,499.667 1964.13,499.225C1964.13,497.521 1963.54,496.228 1962.38,495.344C1961.21,494.461 1959.76,494.019 1958.02,494.019Z" style="fill-rule:nonzero;"/>
    <path d="M1990.49,511.341L1989.92,511.341C1989.01,512.667 1987.86,513.661 1986.49,514.323C1985.12,514.986 1983.61,515.317 1981.97,515.317C1980.61,515.317 1979.38,515.088 1978.26,514.631C1977.13,514.173 1976.18,513.534 1975.39,512.714C1974.6,511.894 1974,510.9 1973.57,509.732C1973.14,508.565 1972.93,507.271 1972.93,505.851C1972.93,503.674 1973.25,501.655 1973.9,499.793C1974.55,497.931 1975.46,496.314 1976.65,494.942C1977.83,493.569 1979.25,492.489 1980.9,491.7C1982.56,490.911 1984.38,490.516 1986.37,490.516C1988.23,490.516 1989.77,490.919 1990.99,491.723C1992.2,492.528 1993,493.577 1993.38,494.871L1993.94,494.871L1994.75,491.179L1998.44,491.179L1992.24,520.429C1991.99,521.502 1991.45,522.385 1990.63,523.079C1989.81,523.773 1988.87,524.12 1987.79,524.12L1973.5,524.12L1973.5,520.713L1987.18,520.713C1988.06,520.713 1988.6,520.239 1988.79,519.293L1990.49,511.341ZM1982.78,511.815C1984.23,511.815 1985.55,511.491 1986.75,510.844C1987.95,510.198 1988.98,509.346 1989.85,508.289C1990.72,507.232 1991.39,506.025 1991.86,504.668C1992.34,503.311 1992.57,501.939 1992.57,500.55C1992.57,498.594 1992.02,497.016 1990.92,495.817C1989.81,494.618 1988.33,494.019 1986.47,494.019C1984.98,494.019 1983.64,494.334 1982.44,494.965C1981.25,495.597 1980.23,496.441 1979.39,497.498C1978.56,498.555 1977.91,499.777 1977.45,501.166C1976.99,502.554 1976.76,503.99 1976.76,505.473C1976.76,507.429 1977.28,508.975 1978.3,510.111C1979.33,511.247 1980.82,511.815 1982.78,511.815Z" style="fill-rule:nonzero;"/>
    <path d="M2017.18,510.963C2016.21,512.635 2015.05,513.779 2013.71,514.394C2012.36,515.009 2010.95,515.317 2009.47,515.317C2008.21,515.317 2007.07,515.088 2006.06,514.631C2005.05,514.173 2004.2,513.534 2003.51,512.714C2002.81,511.894 2002.28,510.908 2001.9,509.756C2001.52,508.604 2001.33,507.334 2001.33,505.946C2001.33,503.958 2001.61,502.033 2002.18,500.172C2002.75,498.31 2003.58,496.669 2004.66,495.249C2005.75,493.83 2007.1,492.686 2008.71,491.818C2010.32,490.95 2012.18,490.516 2014.3,490.516C2015.91,490.516 2017.28,490.887 2018.41,491.629C2019.55,492.37 2020.29,493.451 2020.64,494.871L2021.21,494.871L2021.96,491.179L2025.65,491.179L2021.49,510.679C2021.43,510.963 2021.46,511.176 2021.59,511.318C2021.71,511.46 2021.88,511.531 2022.11,511.531C2022.33,511.531 2022.55,511.452 2022.77,511.294L2024.47,510.064L2026.46,512.856L2024.33,514.465C2023.98,514.718 2023.55,514.923 2023.03,515.08C2022.51,515.238 2021.98,515.317 2021.44,515.317C2020.97,515.317 2020.51,515.254 2020.07,515.128C2019.63,515.002 2019.23,514.804 2018.86,514.536C2018.5,514.268 2018.21,513.921 2017.99,513.495C2017.77,513.069 2017.66,512.54 2017.66,511.909C2017.66,511.752 2017.66,511.594 2017.68,511.436C2017.7,511.278 2017.72,511.121 2017.75,510.963L2017.18,510.963ZM2010.61,511.815C2011.87,511.815 2013.06,511.523 2014.18,510.939C2015.3,510.355 2016.28,509.559 2017.11,508.549C2017.95,507.539 2018.6,506.348 2019.08,504.976C2019.55,503.603 2019.79,502.112 2019.79,500.503C2019.79,498.547 2019.35,496.977 2018.46,495.794C2017.58,494.61 2016.21,494.019 2014.34,494.019C2012.86,494.019 2011.56,494.334 2010.44,494.965C2009.32,495.597 2008.36,496.441 2007.58,497.498C2006.79,498.555 2006.19,499.777 2005.8,501.166C2005.41,502.554 2005.21,503.99 2005.21,505.473C2005.21,507.555 2005.67,509.133 2006.58,510.206C2007.5,511.278 2008.84,511.815 2010.61,511.815Z" style="fill-rule:nonzero;"/>
    <path d="M2033.75,491.179L2041.89,491.179L2044.07,480.861L2047.76,480.861L2045.58,491.179L2053.91,491.179L2053.91,494.587L2044.82,494.587L2041.46,510.537C2041.37,510.915 2041.41,511.215 2041.58,511.436C2041.76,511.657 2041.98,511.767 2042.27,511.767C2042.49,511.767 2042.73,511.689 2042.98,511.531L2049.27,507.271L2051.17,510.064L2044.87,514.323C2043.86,514.986 2042.82,515.317 2041.75,515.317C2040.64,515.317 2039.7,514.986 2038.91,514.323C2038.12,513.661 2037.72,512.667 2037.72,511.341C2037.72,511.121 2037.74,510.892 2037.77,510.655C2037.8,510.419 2037.85,510.174 2037.91,509.922L2041.13,494.587L2033.75,494.587L2033.75,491.179Z" style="fill-rule:nonzero;"/>
    <path d="M2073.03,484.174C2073.03,483.259 2073.36,482.478 2074,481.832C2074.65,481.185 2075.43,480.861 2076.35,480.861C2077.26,480.861 2078.04,481.185 2078.69,481.832C2079.34,482.478 2079.66,483.259 2079.66,484.174C2079.66,485.089 2079.34,485.87 2078.69,486.517C2078.04,487.164 2077.26,487.487 2076.35,487.487C2075.43,487.487 2074.65,487.164 2074,486.517C2073.36,485.87 2073.03,485.089 2073.03,484.174ZM2072.28,495.297C2072.34,494.981 2072.3,494.705 2072.16,494.469C2072.01,494.232 2071.77,494.114 2071.42,494.114C2071.17,494.114 2070.93,494.177 2070.71,494.303L2065.18,498.089L2063.28,495.297L2068.87,491.51C2069.85,490.848 2070.9,490.516 2072.04,490.516C2073.11,490.516 2074.04,490.832 2074.83,491.463C2075.62,492.094 2076.01,493.072 2076.01,494.398C2076.01,494.902 2075.95,495.407 2075.82,495.912L2072.32,510.537C2072.23,510.915 2072.27,511.215 2072.44,511.436C2072.61,511.657 2072.84,511.767 2073.13,511.767C2073.35,511.767 2073.58,511.689 2073.84,511.531L2079.28,507.839L2081.17,510.632L2075.73,514.323C2074.72,514.986 2073.66,515.317 2072.56,515.317C2071.49,515.317 2070.55,515.002 2069.77,514.371C2068.98,513.739 2068.58,512.761 2068.58,511.436C2068.58,510.931 2068.65,510.426 2068.77,509.922L2072.28,495.297Z" style="fill-rule:nonzero;"/>
    <path d="M2099.63,512.951L2100.2,512.951L2111.18,491.179L2114.64,492.93L2103.28,514.655L2096.08,514.655L2094.28,494.871C2094.22,494.366 2093.95,494.114 2093.48,494.114C2093.13,494.114 2092.85,494.256 2092.63,494.539L2090.31,497.474L2087.66,495.344L2089.93,492.41C2090.43,491.779 2091.02,491.305 2091.68,490.99C2092.34,490.674 2093.02,490.516 2093.72,490.516C2094.76,490.516 2095.7,490.848 2096.53,491.51C2097.37,492.173 2097.85,493.167 2097.97,494.492L2099.63,512.951Z" style="fill-rule:nonzero;"/>
    <path d="M2121.92,504.053C2121.86,504.305 2121.81,504.589 2121.78,504.905C2121.75,505.22 2121.73,505.551 2121.73,505.899C2121.73,507.634 2122.24,509.062 2123.25,510.182C2124.26,511.302 2125.87,511.862 2128.08,511.862C2129.18,511.862 2130.17,511.736 2131.03,511.483C2131.9,511.231 2132.65,510.876 2133.28,510.419C2133.91,509.961 2134.46,509.44 2134.92,508.857C2135.37,508.273 2135.76,507.65 2136.07,506.987L2139.1,508.691C2138.66,509.606 2138.11,510.466 2137.45,511.27C2136.78,512.075 2136,512.777 2135.08,513.377C2134.17,513.976 2133.11,514.449 2131.91,514.797C2130.71,515.144 2129.34,515.317 2127.79,515.317C2126.37,515.317 2125.07,515.104 2123.89,514.678C2122.7,514.252 2121.69,513.637 2120.84,512.832C2119.98,512.028 2119.32,511.042 2118.85,509.874C2118.37,508.707 2118.14,507.382 2118.14,505.899C2118.14,503.911 2118.45,501.994 2119.08,500.148C2119.72,498.302 2120.63,496.669 2121.83,495.249C2123.03,493.83 2124.51,492.686 2126.28,491.818C2128.05,490.95 2130.05,490.516 2132.29,490.516C2133.87,490.516 2135.24,490.761 2136.41,491.25C2137.57,491.739 2138.54,492.402 2139.29,493.238C2140.05,494.074 2140.62,495.021 2141,496.078C2141.38,497.135 2141.57,498.231 2141.57,499.367C2141.57,500.219 2141.47,501.039 2141.28,501.828L2140.76,504.053L2121.92,504.053ZM2131.82,494.019C2130.71,494.019 2129.68,494.185 2128.72,494.516C2127.75,494.847 2126.88,495.313 2126.09,495.912C2125.3,496.512 2124.62,497.214 2124.05,498.018C2123.49,498.823 2123.04,499.698 2122.73,500.645L2137.78,500.645C2137.87,500.14 2137.92,499.667 2137.92,499.225C2137.92,497.521 2137.34,496.228 2136.17,495.344C2135,494.461 2133.55,494.019 2131.82,494.019Z" style="fill-rule:nonzero;"/>
    <path d="M1921.29,893.045L1918.41,906.676L1914.43,906.676L1921.48,873.546L1932.27,873.546C1933.69,873.546 1934.96,873.743 1936.08,874.137C1937.2,874.532 1938.15,875.076 1938.92,875.77C1939.7,876.464 1940.3,877.3 1940.72,878.278C1941.15,879.257 1941.36,880.314 1941.36,881.45C1941.36,883.09 1941.08,884.621 1940.51,886.04C1939.94,887.46 1939.11,888.691 1938.03,889.732C1936.94,890.773 1935.62,891.586 1934.07,892.17C1932.53,892.753 1930.79,893.045 1928.87,893.045L1921.29,893.045ZM1922.1,889.354L1929.2,889.354C1930.37,889.354 1931.45,889.188 1932.44,888.857C1933.43,888.525 1934.29,888.052 1935,887.437C1935.71,886.821 1936.27,886.064 1936.68,885.165C1937.09,884.266 1937.29,883.264 1937.29,882.159C1937.29,880.487 1936.81,879.249 1935.85,878.444C1934.88,877.64 1933.51,877.237 1931.71,877.237L1924.65,877.237L1922.1,889.354Z" style="fill:rgb(2,129,255);fill-rule:nonzero;"/>
    <path d="M1958.4,882.538C1959.76,882.538 1961.02,882.775 1962.19,883.248C1963.35,883.721 1964.36,884.384 1965.22,885.236C1966.07,886.088 1966.74,887.105 1967.23,888.289C1967.72,889.472 1967.96,890.773 1967.96,892.193C1967.96,894.15 1967.64,896.035 1966.99,897.849C1966.34,899.663 1965.4,901.273 1964.15,902.677C1962.9,904.081 1961.37,905.209 1959.56,906.061C1957.75,906.913 1955.69,907.339 1953.38,907.339C1952.06,907.339 1950.81,907.11 1949.64,906.652C1948.48,906.195 1947.46,905.556 1946.59,904.736C1945.72,903.915 1945.04,902.913 1944.53,901.73C1944.03,900.547 1943.78,899.23 1943.78,897.778C1943.78,895.506 1944.16,893.432 1944.93,891.554C1945.71,889.677 1946.77,888.076 1948.11,886.75C1949.45,885.425 1951,884.392 1952.77,883.65C1954.54,882.909 1956.41,882.538 1958.4,882.538ZM1954.19,903.836C1955.64,903.836 1956.98,903.513 1958.21,902.866C1959.44,902.219 1960.5,901.367 1961.38,900.31C1962.27,899.253 1962.95,898.046 1963.44,896.69C1963.93,895.333 1964.17,893.929 1964.17,892.477C1964.17,890.616 1963.6,889.077 1962.45,887.863C1961.3,886.648 1959.68,886.04 1957.6,886.04C1956.24,886.04 1954.96,886.34 1953.76,886.94C1952.56,887.539 1951.51,888.36 1950.62,889.401C1949.72,890.442 1949,891.649 1948.46,893.022C1947.92,894.394 1947.66,895.853 1947.66,897.4C1947.66,899.293 1948.22,900.839 1949.36,902.038C1950.5,903.237 1952.11,903.836 1954.19,903.836Z" style="fill:rgb(2,129,255);fill-rule:nonzero;"/>
    <path d="M1987.7,885.851C1987.07,885.851 1986.41,885.93 1985.73,886.088C1985.06,886.246 1984.44,886.482 1983.89,886.798C1983.34,887.113 1982.88,887.516 1982.54,888.005C1982.19,888.494 1982.02,889.07 1982.02,889.732C1982.02,890.742 1982.47,891.499 1983.37,892.004C1984.27,892.509 1985.82,892.84 1988.03,892.998C1990.3,893.156 1992.06,893.724 1993.31,894.702C1994.55,895.68 1995.17,897.116 1995.17,899.009C1995.17,900.334 1994.9,901.517 1994.35,902.558C1993.8,903.6 1993.03,904.475 1992.05,905.185C1991.07,905.895 1989.91,906.432 1988.57,906.794C1987.23,907.157 1985.76,907.339 1984.15,907.339C1982.54,907.339 1981.17,907.126 1980.05,906.7C1978.93,906.274 1978.01,905.706 1977.29,904.996C1976.56,904.286 1976.03,903.481 1975.7,902.582C1975.37,901.683 1975.2,900.76 1975.2,899.813L1975.2,899.316C1975.2,899.143 1975.22,898.977 1975.25,898.819L1978.94,898.346C1978.91,898.599 1978.89,898.756 1978.89,898.819L1978.89,899.103C1978.89,899.798 1979,900.437 1979.2,901.02C1979.41,901.604 1979.75,902.109 1980.22,902.535C1980.69,902.961 1981.31,903.3 1982.07,903.552C1982.82,903.805 1983.75,903.931 1984.86,903.931C1985.58,903.931 1986.33,903.844 1987.11,903.671C1987.88,903.497 1988.58,903.229 1989.21,902.866C1989.84,902.503 1990.36,902.046 1990.77,901.494C1991.18,900.941 1991.39,900.271 1991.39,899.482C1991.39,898.251 1990.89,897.423 1989.9,896.997C1988.9,896.571 1987.43,896.279 1985.47,896.122C1983.23,895.964 1981.47,895.427 1980.2,894.512C1978.92,893.597 1978.28,892.162 1978.28,890.205C1978.28,889.101 1978.52,888.076 1978.99,887.129C1979.46,886.182 1980.13,885.37 1981,884.692C1981.87,884.013 1982.91,883.485 1984.12,883.106C1985.34,882.727 1986.69,882.538 1988.17,882.538C1989.62,882.538 1990.88,882.735 1991.93,883.13C1992.99,883.524 1993.86,884.037 1994.54,884.668C1995.22,885.299 1995.72,886.017 1996.05,886.821C1996.38,887.626 1996.55,888.454 1996.55,889.306L1996.55,889.827L1992.9,890.347L1992.9,890.158C1992.9,890.095 1992.91,890.04 1992.93,889.992C1992.94,889.945 1992.95,889.89 1992.95,889.827C1992.95,888.628 1992.5,887.665 1991.6,886.94C1990.7,886.214 1989.4,885.851 1987.7,885.851Z" style="fill:rgb(2,129,255);fill-rule:nonzero;"/>
    <path d="M2015.1,876.196C2015.1,875.281 2015.42,874.5 2016.07,873.853C2016.72,873.206 2017.5,872.883 2018.41,872.883C2019.33,872.883 2020.11,873.206 2020.76,873.853C2021.4,874.5 2021.73,875.281 2021.73,876.196C2021.73,877.111 2021.4,877.892 2020.76,878.539C2020.11,879.186 2019.33,879.509 2018.41,879.509C2017.5,879.509 2016.72,879.186 2016.07,878.539C2015.42,877.892 2015.1,877.111 2015.1,876.196ZM2014.34,887.318C2014.41,887.003 2014.37,886.727 2014.23,886.49C2014.08,886.253 2013.84,886.135 2013.49,886.135C2013.24,886.135 2013,886.198 2012.78,886.324L2007.24,890.111L2005.35,887.318L2010.94,883.532C2011.91,882.869 2012.97,882.538 2014.11,882.538C2015.18,882.538 2016.11,882.854 2016.9,883.485C2017.69,884.116 2018.08,885.094 2018.08,886.419C2018.08,886.924 2018.02,887.429 2017.89,887.934L2014.39,902.558C2014.3,902.937 2014.34,903.237 2014.51,903.458C2014.68,903.679 2014.91,903.789 2015.2,903.789C2015.42,903.789 2015.65,903.71 2015.91,903.552L2021.35,899.861L2023.24,902.653L2017.8,906.345C2016.79,907.007 2015.73,907.339 2014.63,907.339C2013.56,907.339 2012.62,907.023 2011.84,906.392C2011.05,905.761 2010.65,904.783 2010.65,903.458C2010.65,902.953 2010.72,902.448 2010.84,901.943L2014.34,887.318Z" style="fill:rgb(2,129,255);fill-rule:nonzero;"/>
    <path d="M2033.75,883.201L2041.89,883.201L2044.07,872.883L2047.76,872.883L2045.58,883.201L2053.91,883.201L2053.91,886.608L2044.82,886.608L2041.46,902.558C2041.37,902.937 2041.41,903.237 2041.58,903.458C2041.76,903.679 2041.98,903.789 2042.27,903.789C2042.49,903.789 2042.73,903.71 2042.98,903.552L2049.27,899.293L2051.17,902.085L2044.87,906.345C2043.86,907.007 2042.82,907.339 2041.75,907.339C2040.64,907.339 2039.7,907.007 2038.91,906.345C2038.12,905.682 2037.72,904.688 2037.72,903.363C2037.72,903.142 2037.74,902.913 2037.77,902.677C2037.8,902.44 2037.85,902.196 2037.91,901.943L2041.13,886.608L2033.75,886.608L2033.75,883.201Z" style="fill:rgb(2,129,255);fill-rule:nonzero;"/>
    <path d="M2073.03,876.196C2073.03,875.281 2073.36,874.5 2074,873.853C2074.65,873.206 2075.43,872.883 2076.35,872.883C2077.26,872.883 2078.04,873.206 2078.69,873.853C2079.34,874.5 2079.66,875.281 2079.66,876.196C2079.66,877.111 2079.34,877.892 2078.69,878.539C2078.04,879.186 2077.26,879.509 2076.35,879.509C2075.43,879.509 2074.65,879.186 2074,878.539C2073.36,877.892 2073.03,877.111 2073.03,876.196ZM2072.28,887.318C2072.34,887.003 2072.3,886.727 2072.16,886.49C2072.01,886.253 2071.77,886.135 2071.42,886.135C2071.17,886.135 2070.93,886.198 2070.71,886.324L2065.18,890.111L2063.28,887.318L2068.87,883.532C2069.85,882.869 2070.9,882.538 2072.04,882.538C2073.11,882.538 2074.04,882.854 2074.83,883.485C2075.62,884.116 2076.01,885.094 2076.01,886.419C2076.01,886.924 2075.95,887.429 2075.82,887.934L2072.32,902.558C2072.23,902.937 2072.27,903.237 2072.44,903.458C2072.61,903.679 2072.84,903.789 2073.13,903.789C2073.35,903.789 2073.58,903.71 2073.84,903.552L2079.28,899.861L2081.17,902.653L2075.73,906.345C2074.72,907.007 2073.66,907.339 2072.56,907.339C2071.49,907.339 2070.55,907.023 2069.77,906.392C2068.98,905.761 2068.58,904.783 2068.58,903.458C2068.58,902.953 2068.65,902.448 2068.77,901.943L2072.28,887.318Z" style="fill:rgb(2,129,255);fill-rule:nonzero;"/>
    <path d="M2099.63,904.972L2100.2,904.972L2111.18,883.201L2114.64,884.952L2103.28,906.676L2096.08,906.676L2094.28,886.892C2094.22,886.388 2093.95,886.135 2093.48,886.135C2093.13,886.135 2092.85,886.277 2092.63,886.561L2090.31,889.496L2087.66,887.366L2089.93,884.431C2090.43,883.8 2091.02,883.327 2091.68,883.011C2092.34,882.696 2093.02,882.538 2093.72,882.538C2094.76,882.538 2095.7,882.869 2096.53,883.532C2097.37,884.195 2097.85,885.189 2097.97,886.514L2099.63,904.972Z" style="fill:rgb(2,129,255);fill-rule:nonzero;"/>
    <path d="M2121.92,896.074C2121.86,896.327 2121.81,896.611 2121.78,896.926C2121.75,897.242 2121.73,897.573 2121.73,897.92C2121.73,899.656 2122.24,901.083 2123.25,902.203C2124.26,903.324 2125.87,903.884 2128.08,903.884C2129.18,903.884 2130.17,903.757 2131.03,903.505C2131.9,903.253 2132.65,902.898 2133.28,902.44C2133.91,901.983 2134.46,901.462 2134.92,900.878C2135.37,900.295 2135.76,899.671 2136.07,899.009L2139.1,900.713C2138.66,901.628 2138.11,902.487 2137.45,903.292C2136.78,904.097 2136,904.799 2135.08,905.398C2134.17,905.998 2133.11,906.471 2131.91,906.818C2130.71,907.165 2129.34,907.339 2127.79,907.339C2126.37,907.339 2125.07,907.126 2123.89,906.7C2122.7,906.274 2121.69,905.659 2120.84,904.854C2119.98,904.049 2119.32,903.063 2118.85,901.896C2118.37,900.728 2118.14,899.403 2118.14,897.92C2118.14,895.932 2118.45,894.015 2119.08,892.17C2119.72,890.324 2120.63,888.691 2121.83,887.271C2123.03,885.851 2124.51,884.707 2126.28,883.84C2128.05,882.972 2130.05,882.538 2132.29,882.538C2133.87,882.538 2135.24,882.783 2136.41,883.272C2137.57,883.761 2138.54,884.423 2139.29,885.26C2140.05,886.096 2140.62,887.042 2141,888.099C2141.38,889.156 2141.57,890.253 2141.57,891.389C2141.57,892.241 2141.47,893.061 2141.28,893.85L2140.76,896.074L2121.92,896.074ZM2131.82,886.04C2130.71,886.04 2129.68,886.206 2128.72,886.537C2127.75,886.869 2126.88,887.334 2126.09,887.934C2125.3,888.533 2124.62,889.235 2124.05,890.04C2123.49,890.844 2123.04,891.72 2122.73,892.667L2137.78,892.667C2137.87,892.162 2137.92,891.688 2137.92,891.247C2137.92,889.543 2137.34,888.249 2136.17,887.366C2135,886.482 2133.55,886.04 2131.82,886.04Z" style="fill:rgb(2,129,255);fill-rule:nonzero;"/>
    <circle cx="1620.39" cy="549.881" r="16.625" style="fill:rgb(27,27,27);stroke:rgb(27,27,27);stroke-width:8.33px;"/>
    <circle cx="1531.74" cy="941.902" r="16.625" style="fill:rgb(27,27,27);stroke:rgb(27,27,27);stroke-width:8.33px;"/>
    <circle cx="1620.39" cy="1454.7" r="16.625" style="fill:rgb(27,27,27);stroke:rgb(27,27,27);stroke-width:8.33px;"/>
    <circle cx="1544.68" cy="1537.83" r="16.625" style="fill:rgb(216,78,90);stroke:rgb(216,78,90);stroke-width:8.33px;"/>
    <circle cx="1544.68" cy="632.853" r="16.625" style="fill:rgb(216,78,90);stroke:rgb(216,78,90);stroke-width:8.33px;"/>
    <circle cx="1711.62" cy="1063.41" r="16.625" style="fill:rgb(216,78,90);stroke:rgb(216,78,90);stroke-width:8.33px;"/>
    <circle cx="1710.81" cy="941.902" r="16.625" style="fill:rgb(2,129,255);stroke:rgb(2,129,255);stroke-width:8.33px;"/>
</svg>
