<?xml version="1.0" encoding="UTF-8" standalone="no"?>
<!DOCTYPE svg PUBLIC "-//W3C//DTD SVG 1.1//EN" "http://www.w3.org/Graphics/SVG/1.1/DTD/svg11.dtd">
<svg width="100%" height="100%" viewBox="0 0 2363 296" version="1.1" xmlns="http://www.w3.org/2000/svg" xmlns:xlink="http://www.w3.org/1999/xlink" xml:space="preserve" xmlns:serif="http://www.serif.com/" style="fill-rule:evenodd;clip-rule:evenodd;stroke-linecap:round;stroke-linejoin:round;stroke-miterlimit:1.5;">
    <rect x="960.648" y="0" width="440.909" height="295.276" style="fill:rgb(24,24,24);stroke:rgb(24,24,24);stroke-width:1px;"/>
    <path d="M1140.32,106.169L1140.32,274.526L1228.64,274.526L1228.64,106.169L1140.32,106.169Z" style="fill:rgb(57,63,64);stroke:rgb(57,63,64);stroke-width:1px;"/>
    <rect x="1141.02" y="182.575" width="86.934" height="27.96" style="fill:rgb(216,78,90);stroke:rgb(216,78,90);stroke-width:1px;"/>
    <g>
        <path d="M1192.75,172.587L1178.06,152.388" style="fill:none;fill-rule:nonzero;stroke:rgb(247,246,247);stroke-width:3.67px;stroke-miterlimit:4;"/>
        <path d="M1184.48,244.202L1184.48,239.612" style="fill:none;fill-rule:nonzero;stroke:rgb(247,246,247);stroke-width:4.41px;stroke-miterlimit:4;"/>
        <path d="M1184.48,184.523L1184.48,175.342" style="fill:none;fill-rule:nonzero;stroke:rgb(247,246,247);stroke-width:4.41px;stroke-miterlimit:4;"/>
        <path d="M1199.17,141.37L1169.79,141.37" style="fill:none;fill-rule:nonzero;stroke:rgb(247,246,247);stroke-width:3.67px;stroke-miterlimit:4;"/>
        <path d="M1184.48,204.722L1184.48,195.541" style="fill:none;fill-rule:nonzero;stroke:rgb(247,246,247);stroke-width:4.41px;stroke-miterlimit:4;"/>
        <path d="M1199.17,244.202L1169.79,244.202" style="fill:none;fill-rule:nonzero;stroke:rgb(247,246,247);stroke-width:3.67px;stroke-miterlimit:4;"/>
        <path d="M1190.91,152.388L1176.22,172.587" style="fill:none;fill-rule:nonzero;stroke:rgb(247,246,247);stroke-width:3.67px;stroke-miterlimit:4;"/>
        <path d="M1184.48,226.758L1184.48,217.576" style="fill:none;fill-rule:nonzero;stroke:rgb(247,246,247);stroke-width:4.41px;stroke-miterlimit:4;"/>
        <circle cx="1190.91" cy="152.388" r="5.509" style="fill:rgb(247,246,247);"/>
        <circle cx="1178.06" cy="152.388" r="5.509" style="fill:rgb(247,246,247);"/>
        <path d="M1063.45,88.788L1063.34,87.48L1063.31,85.904L1063.36,83.856L1063.38,83.176L1063.48,80.873L1063.62,79.09L1063.84,77.616L1064.16,76.238L1064.57,74.896L1066.46,70.153L1068.93,65.838L1069.74,64.797L1160.24,64.797L1160.57,66.818L1161.47,68.511L1162.82,69.801L1164.51,70.611L1166.43,70.867L1168.45,70.492L1168.84,70.345L1169.83,69.724L1170.84,68.786L1171.12,68.445L1171.74,67.51L1172.06,66.597L1172.17,65.388L1172.18,64.797L1172.12,63.38L1171.88,62.385L1171.38,61.504L1171.19,61.239L1169.65,59.765L1167.81,58.956L1165.69,58.826L1165.67,58.828L1163.64,59.355L1162.01,60.45L1160.86,62.02L1160.29,63.972L1160.24,64.797L1069.74,64.797L1071.92,61.989L1075.39,58.645L1079.3,55.842L1083.6,53.619L1088.26,52.012L1091.02,51.395L1091.53,51.347L1092.55,51.304L1094.08,51.264L1096.14,51.228L1098.74,51.196L1101.9,51.168L1105.63,51.144L1109.95,51.123L1114.86,51.106L1120.4,51.093L1126.56,51.083L1133.36,51.076L1140.82,51.073L1148.95,51.074L1157.77,51.077L1167.29,51.084L1177.52,51.095L1182.1,51.1L1270.97,51.208L1273.54,52.072L1275.26,52.71L1277.17,53.513L1278.68,54.219L1282.88,56.711L1286.76,59.807L1290.25,63.42L1293.29,67.46L1295.79,71.839L1297.69,76.469L1298.24,78.275L1298.65,80.447L1298.87,83.095L1298.89,85.99L1298.73,88.899L1298.38,91.592L1298.03,93.259L1296.41,97.944L1294.19,102.302L1291.4,106.274L1288.1,109.801L1284.34,112.821L1280.17,115.274L1277.77,116.344L1277.18,116.584L1276.66,116.806L1276.17,117.011L1275.68,117.2L1275.18,117.373L1274.62,117.532L1273.98,117.676L1273.24,117.807L1272.35,117.925L1271.31,118.03L1270.06,118.124L1268.6,118.207L1266.89,118.28L1264.9,118.343L1262.61,118.397L1259.98,118.442L1256.99,118.48L1253.6,118.511L1249.8,118.535L1245.55,118.554L1240.83,118.568L1235.59,118.577L1229.83,118.582L1223.51,118.585L1216.6,118.584L1209.07,118.582L1200.89,118.579L1192.04,118.575L1182.49,118.571L1181.1,118.571L1171.3,118.567L1162.2,118.562L1153.79,118.556L1146.04,118.548L1138.92,118.539L1132.41,118.528L1126.48,118.515L1121.11,118.501L1116.28,118.484L1111.95,118.465L1108.11,118.444L1104.72,118.42L1101.77,118.393L1099.22,118.363L1097.05,118.331L1095.24,118.295L1093.77,118.257L1092.59,118.214L1091.7,118.168L1091.07,118.119L1090.67,118.066L1090.62,118.055L1086.45,116.787L1082.4,114.861L1078.53,112.352L1074.93,109.334L1071.67,105.882L1068.83,102.072L1066.47,97.979L1064.67,93.676L1064,91.415L1063.95,91.219L1080.84,91.219L1081.01,92.713L1081.63,95.079L1082.88,97.221L1084.67,99.054L1086.91,100.491L1089.51,101.449L1090.55,101.665L1092.02,101.894L1093.15,101.996L1094.22,101.972L1095.54,101.825L1096.48,101.693L1099.2,101.109L1099.91,100.813L1112.87,100.813L1112.98,101.01L1113.38,101.152L1114.16,101.249L1115.41,101.306L1117.23,101.334L1119.06,101.339L1125.26,101.339L1126.4,97.024L1127.3,93.64L1128.02,90.912L1128.6,88.783L1129.04,87.197L1129.35,86.097L1129.56,85.429L1129.68,85.136L1129.72,85.162L1129.72,85.18L1129.68,85.697L1129.55,86.824L1129.34,88.443L1129.08,90.436L1128.78,92.685L1128.7,93.259L1128.39,95.531L1128.13,97.555L1127.94,99.219L1127.83,100.409L1127.8,101.015L1127.81,101.064L1128.21,101.154L1129.22,101.233L1130.72,101.293L1132.58,101.33L1134.16,101.339L1136.45,101.333L1138.1,101.306L1139.23,101.249L1139.94,101.151L1140.34,101.001L1140.53,100.789L1140.56,100.696L1140.99,99.259L1141.53,97.372L1142.16,95.129L1142.84,92.619L1143.57,89.936L1144.31,87.17L1145.04,84.414L1145.73,81.758L1146.37,79.295L1146.53,78.668L1147.01,78.668L1147.66,79.665L1148.96,81.669L1149.93,83.134L1150.62,84.137L1151.07,84.759L1151.36,85.079L1151.53,85.176L1151.54,85.176L1151.94,84.984L1152.81,84.461L1154.02,83.693L1155.13,82.959L1156.58,82L1157.52,81.425L1158.05,81.195L1158.25,81.269L1158.23,81.582L1158.08,82.224L1157.79,83.433L1157.4,85.061L1156.94,86.959L1156.71,87.934L1156.04,90.912L1155.61,93.293L1155.42,95.168L1155.47,96.631L1155.73,97.773L1155.93,98.226L1157.2,99.928L1158.92,101.113L1160.96,101.744L1163.22,101.786L1165.38,101.271L1166.02,100.949L1167.07,100.32L1168.41,99.468L1169.91,98.476L1171.46,97.428L1172.93,96.409L1174.2,95.502L1175.14,94.79L1175.63,94.358L1175.67,94.286L1175.47,93.762L1174.95,92.866L1174.21,91.748L1173.37,90.558L1172.52,89.446L1171.79,88.563L1171.28,88.058L1171.12,88L1170.65,88.3L1169.74,88.915L1168.54,89.738L1167.83,90.225L1166.58,91.065L1165.57,91.696L1164.94,92.032L1164.8,92.059L1164.83,91.668L1165.01,90.682L1165.32,89.222L1165.72,87.406L1166.11,85.757L1166.8,82.768L1167.26,80.405L1186.69,80.405L1188.36,80.411L1189.42,80.45L1190,80.551L1190.22,80.744L1190.21,81.06L1190.18,81.232L1189.47,84.289L1188.84,87.18L1188.3,89.803L1187.87,92.057L1187.57,93.837L1187.43,95.043L1187.42,95.305L1187.75,97.333L1188.66,99.064L1190.04,100.435L1191.76,101.381L1193.72,101.842L1195.8,101.752L1197.89,101.048L1198.46,100.715L1199.5,100.067L1200.86,99.197L1202.41,98.197L1204.01,97.159L1205.5,96.176L1206.76,95.339L1207.63,94.742L1207.92,94.523L1207.78,94.198L1207.3,93.395L1206.57,92.239L1205.8,91.077L1204.63,89.425L1204.33,89.051L1213.93,89.051L1214.27,92.153L1215.18,94.935L1216.63,97.337L1218.58,99.299L1220.99,100.76L1223.81,101.659L1224.1,101.712L1226.05,101.877L1228.41,101.799L1230.91,101.493L1232.04,101.278L1232.68,101.064L1245.82,101.064L1246.15,101.199L1247.05,101.289L1248.33,101.336L1249.82,101.341L1251.34,101.307L1252.73,101.236L1253.81,101.132L1254.4,100.995L1254.46,100.95L1254.6,100.493L1254.87,99.424L1255.24,97.849L1255.69,95.876L1256.19,93.612L1256.47,92.307L1257.23,88.923L1257.91,86.192L1258.57,84.044L1259.24,82.406L1259.96,81.206L1260.77,80.373L1261.7,79.832L1262.82,79.514L1263.61,79.396L1264.72,79.342L1265.48,79.582L1266.27,80.24L1266.36,80.331L1267.07,81.199L1267.45,82.006L1267.48,82.202L1267.4,82.823L1267.19,84.005L1266.87,85.595L1266.48,87.44L1266.35,88.015L1265.73,90.945L1265.36,93.281L1265.21,95.127L1265.29,96.583L1265.59,97.751L1265.98,98.527L1267.42,100.224L1269.26,101.335L1271.38,101.833L1273.7,101.689L1275.19,101.267L1275.83,100.957L1276.82,100.385L1278.03,99.651L1279.29,98.855L1280.43,98.099L1281.32,97.483L1281.77,97.108L1281.81,97.055L1281.61,96.708L1281.09,95.883L1280.33,94.713L1279.58,93.588L1277.35,90.273L1276.06,91.252L1275.25,91.807L1274.7,92.062L1274.6,92.051L1274.61,91.648L1274.75,90.653L1275,89.193L1275.34,87.394L1275.57,86.229L1276.07,83.665L1276.39,81.693L1276.53,80.198L1276.52,79.065L1276.49,78.791L1275.84,76.317L1274.65,74.279L1272.99,72.725L1270.94,71.703L1268.59,71.259L1266,71.441L1264.77,71.744L1263.41,72.283L1262.11,72.998L1261.77,73.231L1260.94,73.775L1260.53,73.819L1260.51,73.715L1260.58,73.215L1260.79,72.121L1261.1,70.558L1261.5,68.648L1261.92,66.687L1262.46,64.132L1262.81,62.235L1263,60.944L1263.01,60.207L1262.91,59.978L1262.38,59.919L1261.29,59.89L1259.81,59.892L1258.5,59.917L1254.52,60.022L1250.17,80.405L1249.37,84.167L1248.62,87.714L1247.92,90.98L1247.31,93.901L1246.78,96.412L1246.35,98.447L1246.04,99.943L1245.86,100.833L1245.82,101.064L1232.68,101.064L1234.65,100.407L1237.2,99.005L1239.39,97.24L1239.83,96.777L1240.74,95.642L1241.64,94.276L1242.46,92.846L1243.11,91.52L1243.49,90.468L1243.53,89.9L1243.17,89.687L1242.28,89.343L1241.04,88.92L1239.63,88.472L1238.21,88.053L1236.97,87.715L1236.07,87.512L1235.69,87.497L1235.69,87.497L1235.51,87.83L1235.08,88.627L1234.6,89.522L1233.48,91.237L1232.21,92.364L1230.59,93.048L1229.76,93.24L1227.53,93.389L1225.64,92.943L1224.16,91.918L1224.05,91.804L1223.48,91.064L1223.18,90.298L1223.06,89.233L1223.04,88.337L1223.36,85.827L1224.27,83.639L1225.69,81.857L1227.55,80.565L1229.78,79.845L1230.51,79.753L1232.64,79.839L1234.32,80.465L1235.51,81.599L1236.15,83.209L1236.27,84.433L1236.28,84.962L1236.4,85.304L1236.74,85.469L1237.41,85.466L1238.53,85.303L1240.21,84.99L1241.12,84.813L1242.69,84.511L1243.97,84.269L1244.8,84.117L1245.04,84.079L1245.08,83.746L1245.06,82.881L1244.98,81.854L1244.39,79.001L1243.19,76.532L1241.44,74.488L1239.18,72.912L1236.46,71.847L1233.33,71.335L1233.2,71.327L1229.51,71.433L1226.05,72.171L1222.9,73.493L1220.13,75.35L1217.79,77.695L1215.94,80.479L1214.66,83.653L1214.2,85.691L1213.93,89.051L1204.33,89.051L1203.79,88.407L1203.25,88.002L1203.09,88.016L1202.6,88.34L1201.67,88.97L1200.45,89.798L1199.77,90.261L1198.53,91.093L1197.52,91.721L1196.91,92.059L1196.78,92.091L1196.81,91.715L1196.98,90.762L1197.24,89.372L1197.58,87.685L1197.97,85.843L1198.37,83.984L1198.75,82.249L1198.99,81.232L1199.09,80.914L1199.29,80.691L1199.71,80.544L1200.45,80.459L1201.64,80.419L1203.38,80.406L1204.69,80.405L1210.19,80.405L1210.19,71.958L1200.95,71.958L1201.22,70.765L1201.84,67.943L1202.37,65.428L1202.79,63.3L1203.1,61.64L1203.27,60.526L1203.29,60.04L1203.28,60.029L1202.86,59.953L1201.86,59.892L1200.43,59.851L1198.95,59.839L1197.13,59.851L1195.92,59.902L1195.18,60.01L1194.8,60.195L1194.63,60.474L1194.48,61.074L1194.23,62.225L1193.89,63.773L1193.52,65.557L1193.48,65.715L1193.1,67.533L1192.76,69.151L1192.49,70.399L1192.32,71.132L1192.2,71.476L1191.97,71.708L1191.49,71.851L1190.65,71.925L1189.31,71.954L1187.56,71.958L1183.01,71.958L1183.01,80.405L1167.26,80.405L1167.26,80.381L1167.51,78.498L1167.54,77.023L1167.37,75.858L1167,74.906L1166.75,74.5L1165.41,73.009L1163.72,71.893L1162.22,71.375L1161.01,71.226L1159.85,71.285L1158.62,71.598L1157.2,72.207L1155.48,73.159L1153.35,74.496L1152.34,75.152L1147.01,78.668L1146.53,78.668L1146.92,77.115L1147.36,75.312L1147.68,73.976L1147.84,73.198L1147.85,73.037L1147.32,72.796L1146.31,72.489L1145.01,72.16L1143.62,71.85L1142.32,71.603L1141.32,71.461L1140.8,71.466L1140.78,71.482L1140.6,71.918L1140.29,72.945L1139.86,74.442L1139.37,76.286L1138.92,77.983L1138.4,79.963L1137.94,81.639L1137.56,82.904L1137.3,83.654L1137.2,83.805L1137.2,83.321L1137.3,82.249L1137.47,80.729L1137.71,78.9L1137.82,78.059L1138.09,76.141L1138.31,74.474L1138.48,73.198L1138.57,72.452L1138.58,72.328L1138.22,72.183L1137.17,72.072L1135.48,71.997L1133.19,71.961L1132.22,71.958L1125.87,71.958L1124.07,78.737L1123.5,80.834L1122.99,82.653L1122.58,84.09L1122.28,85.037L1122.14,85.389L1122.13,85.388L1122.14,85.007L1122.23,84.043L1122.38,82.639L1122.58,80.94L1122.81,79.09L1123.05,77.234L1123.29,75.515L1123.49,74.078L1123.66,73.066L1123.71,72.785L1123.77,72.417L1123.66,72.178L1123.25,72.041L1122.42,71.978L1121.06,71.959L1120.05,71.958L1116.2,71.958L1116.01,73.152L1115.92,73.809L1115.76,75.071L1115.55,76.836L1115.3,79.005L1115.01,81.477L1114.7,84.151L1114.38,86.926L1114.07,89.703L1113.77,92.38L1113.49,94.857L1113.25,97.033L1113.06,98.807L1112.93,100.08L1112.87,100.75L1112.87,100.813L1099.91,100.813L1101.44,100.172L1103.4,98.792L1103.66,98.559L1105.12,97.051L1106.07,95.53L1106.6,93.783L1106.79,91.598L1106.8,91.03L1106.78,89.421L1106.67,88.315L1106.43,87.482L1106.02,86.693L1105.82,86.384L1104.43,84.925L1102.44,83.755L1099.92,82.913L1098.36,82.609L1096.86,82.352L1095.49,82.066L1094.6,81.834L1093.66,81.316L1093.42,80.669L1093.88,80.017L1094.51,79.668L1095.83,79.379L1097.19,79.489L1098.41,79.926L1099.29,80.622L1099.64,81.508L1099.65,81.542L1099.82,82.215L1100,82.414L1100.47,82.413L1101.46,82.252L1102.8,81.977L1104.29,81.63L1105.76,81.256L1107.03,80.898L1107.9,80.601L1108.19,80.451L1108.31,79.869L1108.1,78.862L1107.63,77.619L1106.98,76.324L1106.23,75.164L1105.86,74.72L1103.91,73.124L1101.58,72.026L1098.98,71.416L1096.26,71.283L1093.55,71.618L1090.98,72.41L1088.68,73.65L1086.79,75.326L1086.1,76.235L1084.95,78.509L1084.44,80.837L1084.53,83.106L1085.22,85.2L1086.48,87.006L1087.77,88.082L1088.88,88.728L1090.13,89.242L1091.69,89.678L1093.73,90.09L1094.85,90.281L1096.58,90.67L1097.64,91.172L1098.08,91.823L1098.02,92.444L1097.65,93.02L1096.9,93.385L1095.65,93.573L1094.07,93.622L1092.14,93.365L1090.72,92.599L1089.82,91.342L1089.57,90.489L1089.31,89.606L1088.92,89.324L1088.7,89.354L1088.09,89.507L1086.95,89.782L1085.47,90.134L1084.46,90.372L1080.84,91.219L1063.95,91.219L1063.67,90.032L1063.45,88.788Z" style="fill:rgb(247,246,247);stroke:rgb(247,246,247);stroke-width:0.37px;stroke-miterlimit:4;"/>
        <g>
            <circle cx="1221.16" cy="196.555" r="29.41" style="fill:rgb(251,193,105);"/>
        </g>
        <g>
            <circle cx="1147.71" cy="196.555" r="29.41" style="fill:rgb(251,193,105);"/>
        </g>
    </g>
</svg>
