<?xml version="1.0" encoding="UTF-8" standalone="no"?>
<!DOCTYPE svg PUBLIC "-//W3C//DTD SVG 1.1//EN" "http://www.w3.org/Graphics/SVG/1.1/DTD/svg11.dtd">
<svg width="100%" height="100%" viewBox="0 0 355 178" version="1.1" xmlns="http://www.w3.org/2000/svg" xmlns:xlink="http://www.w3.org/1999/xlink" xml:space="preserve" xmlns:serif="http://www.serif.com/" style="fill-rule:evenodd;clip-rule:evenodd;stroke-linecap:round;stroke-linejoin:round;stroke-miterlimit:1.5;">
    <circle cx="97.215" cy="107.752" r="29.941" style="fill:none;stroke:black;stroke-width:0.65px;"/>
    <circle cx="97.215" cy="107.752" r="9.213" style="fill:none;stroke:black;stroke-width:0.65px;"/>
    <circle cx="97.215" cy="107.752" r="7.37" style="fill:none;stroke:black;stroke-width:0.65px;"/>
    <path d="M103.787,97.481L102.741,100.381L105.318,98.689L103.787,97.481Z"/>
    <path d="M104.19,98.545C109.441,91.892 127.156,69.445 127.156,69.445L144.645,69.445" style="fill:none;stroke:black;stroke-width:0.65px;"/>
    <path d="M128.127,97.943L126.241,100.381L129.213,99.563L128.127,97.943Z"/>
    <path d="M128.184,99.079C131.342,96.962 137.237,93.011 137.237,93.011L144.501,93.011" style="fill:none;stroke:black;stroke-width:0.65px;"/>
    <g transform="matrix(2.2771,0,0,2.2771,-37.9775,-13.9715)">
        <g transform="matrix(2.83465,0,0,2.83465,80.7059,37.6446)">
            <path d="M0.454,-0.453L0.412,-0.41C0.43,-0.387 0.442,-0.365 0.449,-0.345C0.456,-0.325 0.459,-0.302 0.459,-0.276C0.459,-0.225 0.442,-0.18 0.406,-0.141C0.365,-0.096 0.315,-0.074 0.254,-0.074C0.23,-0.074 0.208,-0.077 0.189,-0.084C0.17,-0.091 0.148,-0.103 0.123,-0.122L0.081,-0.08L0.054,-0.105L0.098,-0.147C0.079,-0.172 0.067,-0.194 0.06,-0.214C0.053,-0.233 0.049,-0.256 0.049,-0.281C0.049,-0.336 0.069,-0.383 0.11,-0.424C0.15,-0.464 0.198,-0.484 0.253,-0.484C0.278,-0.484 0.301,-0.481 0.321,-0.474C0.34,-0.466 0.362,-0.454 0.386,-0.436L0.428,-0.478L0.454,-0.453ZM0.361,-0.411C0.338,-0.425 0.319,-0.435 0.304,-0.44C0.288,-0.446 0.271,-0.449 0.253,-0.449C0.207,-0.449 0.167,-0.432 0.134,-0.399C0.101,-0.365 0.084,-0.326 0.084,-0.279C0.084,-0.259 0.087,-0.242 0.093,-0.226C0.098,-0.21 0.108,-0.192 0.123,-0.172L0.361,-0.411ZM0.387,-0.385L0.147,-0.146C0.183,-0.122 0.218,-0.109 0.255,-0.109C0.301,-0.109 0.341,-0.126 0.374,-0.159C0.407,-0.192 0.424,-0.231 0.424,-0.277C0.424,-0.297 0.421,-0.315 0.416,-0.331C0.41,-0.347 0.401,-0.365 0.387,-0.385Z" style="fill-rule:nonzero;"/>
        </g>
        <g transform="matrix(2.83465,0,0,2.83465,82.1495,37.6446)">
            <path d="M0.489,-0.078L0.489,-0L0,-0L0.024,-0.12C0.031,-0.153 0.042,-0.181 0.057,-0.205C0.072,-0.228 0.092,-0.249 0.115,-0.266C0.138,-0.282 0.165,-0.297 0.196,-0.308C0.227,-0.319 0.261,-0.329 0.298,-0.336C0.324,-0.341 0.349,-0.348 0.374,-0.357C0.398,-0.366 0.42,-0.379 0.439,-0.394C0.458,-0.409 0.473,-0.427 0.485,-0.448C0.496,-0.469 0.502,-0.495 0.502,-0.524C0.502,-0.539 0.5,-0.554 0.495,-0.568C0.49,-0.581 0.482,-0.593 0.472,-0.603C0.461,-0.613 0.448,-0.621 0.431,-0.627C0.414,-0.633 0.395,-0.636 0.372,-0.636C0.321,-0.636 0.278,-0.62 0.244,-0.589C0.209,-0.558 0.186,-0.516 0.175,-0.464L0.166,-0.42L0.081,-0.42L0.091,-0.47C0.098,-0.504 0.109,-0.536 0.124,-0.566C0.139,-0.595 0.159,-0.621 0.183,-0.643C0.207,-0.665 0.236,-0.682 0.269,-0.695C0.302,-0.708 0.339,-0.714 0.382,-0.714C0.415,-0.714 0.444,-0.709 0.47,-0.7C0.496,-0.69 0.518,-0.677 0.535,-0.661C0.552,-0.644 0.566,-0.625 0.575,-0.604C0.584,-0.583 0.589,-0.561 0.589,-0.538C0.589,-0.46 0.566,-0.399 0.519,-0.355C0.472,-0.31 0.408,-0.28 0.325,-0.264C0.292,-0.257 0.263,-0.25 0.238,-0.241C0.213,-0.232 0.192,-0.222 0.175,-0.21C0.157,-0.198 0.142,-0.184 0.132,-0.167C0.121,-0.15 0.112,-0.131 0.107,-0.108L0.1,-0.078L0.489,-0.078Z" style="fill-rule:nonzero;"/>
        </g>
        <g transform="matrix(2.83465,0,0,2.83465,83.8843,37.6446)">
            <path d="M0.186,-0.056C0.186,-0.075 0.193,-0.092 0.207,-0.106C0.22,-0.119 0.237,-0.126 0.256,-0.126C0.275,-0.126 0.292,-0.119 0.306,-0.106C0.319,-0.092 0.326,-0.075 0.326,-0.056C0.326,-0.037 0.319,-0.02 0.306,-0.007C0.292,0.007 0.275,0.014 0.256,0.014C0.237,0.014 0.22,0.007 0.207,-0.007C0.193,-0.02 0.186,-0.037 0.186,-0.056Z" style="fill-rule:nonzero;"/>
        </g>
        <g transform="matrix(2.83465,0,0,2.83465,85.6191,37.6446)">
            <path d="M0.24,-0.35C0.24,-0.367 0.246,-0.382 0.259,-0.395C0.272,-0.408 0.287,-0.414 0.304,-0.414C0.321,-0.414 0.336,-0.408 0.349,-0.395C0.362,-0.382 0.368,-0.367 0.368,-0.35C0.368,-0.333 0.362,-0.318 0.349,-0.305C0.336,-0.292 0.321,-0.286 0.304,-0.286C0.287,-0.286 0.272,-0.292 0.259,-0.305C0.246,-0.318 0.24,-0.333 0.24,-0.35ZM0.075,-0.428C0.094,-0.521 0.129,-0.592 0.178,-0.641C0.227,-0.69 0.292,-0.714 0.375,-0.714C0.44,-0.714 0.489,-0.696 0.524,-0.659C0.558,-0.622 0.575,-0.57 0.575,-0.505C0.575,-0.492 0.574,-0.478 0.573,-0.463C0.571,-0.448 0.568,-0.432 0.565,-0.417L0.534,-0.272C0.515,-0.179 0.481,-0.108 0.432,-0.059C0.383,-0.01 0.317,0.014 0.234,0.014C0.169,0.014 0.12,-0.005 0.086,-0.042C0.051,-0.079 0.034,-0.13 0.034,-0.195C0.034,-0.208 0.035,-0.223 0.037,-0.238C0.038,-0.253 0.041,-0.268 0.044,-0.283L0.075,-0.428ZM0.246,-0.062C0.273,-0.062 0.298,-0.067 0.321,-0.078C0.343,-0.088 0.363,-0.102 0.38,-0.122C0.397,-0.14 0.411,-0.163 0.423,-0.19C0.434,-0.216 0.444,-0.245 0.451,-0.278L0.483,-0.428C0.488,-0.455 0.491,-0.478 0.491,-0.498C0.491,-0.541 0.48,-0.576 0.459,-0.601C0.438,-0.626 0.406,-0.638 0.363,-0.638C0.308,-0.638 0.263,-0.618 0.23,-0.579C0.196,-0.54 0.172,-0.487 0.158,-0.422L0.126,-0.272C0.121,-0.245 0.118,-0.222 0.118,-0.202C0.118,-0.159 0.129,-0.125 0.15,-0.1C0.171,-0.075 0.203,-0.062 0.246,-0.062Z" style="fill-rule:nonzero;"/>
        </g>
        <g transform="matrix(2.83465,0,0,2.83465,87.3539,37.6446)">
            <path d="M0.476,-0.372C0.477,-0.375 0.477,-0.378 0.478,-0.381C0.478,-0.384 0.478,-0.387 0.478,-0.39C0.478,-0.403 0.474,-0.414 0.467,-0.423C0.46,-0.432 0.448,-0.436 0.433,-0.436C0.414,-0.436 0.399,-0.429 0.388,-0.416C0.377,-0.403 0.368,-0.384 0.363,-0.36L0.286,-0L0.208,-0L0.287,-0.372C0.288,-0.379 0.289,-0.386 0.289,-0.393C0.289,-0.405 0.286,-0.415 0.28,-0.424C0.273,-0.432 0.262,-0.436 0.245,-0.436C0.224,-0.436 0.208,-0.428 0.197,-0.413C0.186,-0.398 0.179,-0.38 0.174,-0.36L0.097,-0L0.02,-0L0.125,-0.496L0.203,-0.496L0.194,-0.454L0.206,-0.454C0.213,-0.473 0.225,-0.488 0.24,-0.497C0.255,-0.505 0.272,-0.51 0.291,-0.51C0.312,-0.51 0.329,-0.505 0.342,-0.495C0.355,-0.485 0.363,-0.471 0.366,-0.454L0.378,-0.454C0.387,-0.472 0.399,-0.486 0.414,-0.496C0.429,-0.505 0.447,-0.51 0.468,-0.51C0.498,-0.51 0.521,-0.501 0.536,-0.484C0.551,-0.466 0.559,-0.443 0.559,-0.414C0.559,-0.408 0.559,-0.402 0.558,-0.395C0.557,-0.388 0.556,-0.381 0.555,-0.376L0.491,-0.078C0.49,-0.073 0.49,-0.069 0.493,-0.066C0.496,-0.063 0.499,-0.062 0.503,-0.062C0.507,-0.062 0.511,-0.063 0.514,-0.066L0.556,-0.097L0.598,-0.038L0.553,-0.004C0.546,0.001 0.537,0.006 0.526,0.009C0.515,0.012 0.503,0.014 0.492,0.014C0.482,0.014 0.472,0.013 0.463,0.01C0.454,0.007 0.445,0.003 0.438,-0.003C0.43,-0.008 0.424,-0.016 0.419,-0.025C0.414,-0.034 0.412,-0.045 0.412,-0.058C0.412,-0.061 0.412,-0.065 0.413,-0.068C0.413,-0.071 0.413,-0.075 0.414,-0.078L0.476,-0.372Z" style="fill-rule:nonzero;"/>
        </g>
        <g transform="matrix(2.83465,0,0,2.83465,89.0887,37.6446)">
            <path d="M0.476,-0.372C0.477,-0.375 0.477,-0.378 0.478,-0.381C0.478,-0.384 0.478,-0.387 0.478,-0.39C0.478,-0.403 0.474,-0.414 0.467,-0.423C0.46,-0.432 0.448,-0.436 0.433,-0.436C0.414,-0.436 0.399,-0.429 0.388,-0.416C0.377,-0.403 0.368,-0.384 0.363,-0.36L0.286,-0L0.208,-0L0.287,-0.372C0.288,-0.379 0.289,-0.386 0.289,-0.393C0.289,-0.405 0.286,-0.415 0.28,-0.424C0.273,-0.432 0.262,-0.436 0.245,-0.436C0.224,-0.436 0.208,-0.428 0.197,-0.413C0.186,-0.398 0.179,-0.38 0.174,-0.36L0.097,-0L0.02,-0L0.125,-0.496L0.203,-0.496L0.194,-0.454L0.206,-0.454C0.213,-0.473 0.225,-0.488 0.24,-0.497C0.255,-0.505 0.272,-0.51 0.291,-0.51C0.312,-0.51 0.329,-0.505 0.342,-0.495C0.355,-0.485 0.363,-0.471 0.366,-0.454L0.378,-0.454C0.387,-0.472 0.399,-0.486 0.414,-0.496C0.429,-0.505 0.447,-0.51 0.468,-0.51C0.498,-0.51 0.521,-0.501 0.536,-0.484C0.551,-0.466 0.559,-0.443 0.559,-0.414C0.559,-0.408 0.559,-0.402 0.558,-0.395C0.557,-0.388 0.556,-0.381 0.555,-0.376L0.491,-0.078C0.49,-0.073 0.49,-0.069 0.493,-0.066C0.496,-0.063 0.499,-0.062 0.503,-0.062C0.507,-0.062 0.511,-0.063 0.514,-0.066L0.556,-0.097L0.598,-0.038L0.553,-0.004C0.546,0.001 0.537,0.006 0.526,0.009C0.515,0.012 0.503,0.014 0.492,0.014C0.482,0.014 0.472,0.013 0.463,0.01C0.454,0.007 0.445,0.003 0.438,-0.003C0.43,-0.008 0.424,-0.016 0.419,-0.025C0.414,-0.034 0.412,-0.045 0.412,-0.058C0.412,-0.061 0.412,-0.065 0.413,-0.068C0.413,-0.071 0.413,-0.075 0.414,-0.078L0.476,-0.372Z" style="fill-rule:nonzero;"/>
        </g>
    </g>
    <g transform="matrix(2.2771,0,0,2.2771,-37.9775,9.59515)">
        <g transform="matrix(2.83465,0,0,2.83465,80.7059,37.6446)">
            <path d="M0.454,-0.453L0.412,-0.41C0.43,-0.387 0.442,-0.365 0.449,-0.345C0.456,-0.325 0.459,-0.302 0.459,-0.276C0.459,-0.225 0.442,-0.18 0.406,-0.141C0.365,-0.096 0.315,-0.074 0.254,-0.074C0.23,-0.074 0.208,-0.077 0.189,-0.084C0.17,-0.091 0.148,-0.103 0.123,-0.122L0.081,-0.08L0.054,-0.105L0.098,-0.147C0.079,-0.172 0.067,-0.194 0.06,-0.214C0.053,-0.233 0.049,-0.256 0.049,-0.281C0.049,-0.336 0.069,-0.383 0.11,-0.424C0.15,-0.464 0.198,-0.484 0.253,-0.484C0.278,-0.484 0.301,-0.481 0.321,-0.474C0.34,-0.466 0.362,-0.454 0.386,-0.436L0.428,-0.478L0.454,-0.453ZM0.361,-0.411C0.338,-0.425 0.319,-0.435 0.304,-0.44C0.288,-0.446 0.271,-0.449 0.253,-0.449C0.207,-0.449 0.167,-0.432 0.134,-0.399C0.101,-0.365 0.084,-0.326 0.084,-0.279C0.084,-0.259 0.087,-0.242 0.093,-0.226C0.098,-0.21 0.108,-0.192 0.123,-0.172L0.361,-0.411ZM0.387,-0.385L0.147,-0.146C0.183,-0.122 0.218,-0.109 0.255,-0.109C0.301,-0.109 0.341,-0.126 0.374,-0.159C0.407,-0.192 0.424,-0.231 0.424,-0.277C0.424,-0.297 0.421,-0.315 0.416,-0.331C0.41,-0.347 0.401,-0.365 0.387,-0.385Z" style="fill-rule:nonzero;"/>
        </g>
        <g transform="matrix(2.83465,0,0,2.83465,82.1495,37.6446)">
            <path d="M0.486,-0.496C0.489,-0.509 0.49,-0.522 0.49,-0.535C0.49,-0.569 0.479,-0.595 0.458,-0.613C0.436,-0.631 0.405,-0.64 0.365,-0.64C0.342,-0.64 0.321,-0.636 0.3,-0.628C0.279,-0.62 0.261,-0.608 0.244,-0.594C0.227,-0.579 0.213,-0.561 0.201,-0.54C0.188,-0.519 0.179,-0.497 0.174,-0.472L0.153,-0.374L0.165,-0.374C0.184,-0.401 0.21,-0.423 0.241,-0.439C0.272,-0.454 0.306,-0.462 0.344,-0.462C0.37,-0.462 0.394,-0.458 0.417,-0.45C0.44,-0.442 0.46,-0.431 0.477,-0.416C0.494,-0.401 0.507,-0.382 0.517,-0.361C0.526,-0.339 0.531,-0.315 0.531,-0.288C0.531,-0.245 0.525,-0.206 0.512,-0.169C0.499,-0.132 0.48,-0.1 0.455,-0.074C0.43,-0.047 0.399,-0.025 0.362,-0.01C0.325,0.006 0.282,0.014 0.234,0.014C0.204,0.014 0.177,0.009 0.152,-0C0.127,-0.009 0.106,-0.022 0.089,-0.039C0.071,-0.056 0.057,-0.076 0.047,-0.099C0.037,-0.122 0.032,-0.147 0.032,-0.174C0.032,-0.182 0.033,-0.19 0.034,-0.198C0.035,-0.205 0.036,-0.213 0.037,-0.222L0.09,-0.472C0.099,-0.513 0.112,-0.548 0.13,-0.579C0.148,-0.609 0.169,-0.634 0.195,-0.654C0.22,-0.674 0.248,-0.689 0.279,-0.699C0.31,-0.709 0.343,-0.714 0.378,-0.714C0.407,-0.714 0.434,-0.71 0.459,-0.702C0.483,-0.693 0.504,-0.681 0.521,-0.666C0.538,-0.651 0.552,-0.632 0.561,-0.612C0.57,-0.591 0.575,-0.568 0.575,-0.543C0.575,-0.536 0.575,-0.528 0.574,-0.52C0.573,-0.512 0.572,-0.504 0.57,-0.496L0.486,-0.496ZM0.246,-0.06C0.274,-0.06 0.3,-0.065 0.325,-0.076C0.349,-0.087 0.37,-0.101 0.388,-0.121C0.405,-0.139 0.419,-0.162 0.43,-0.187C0.44,-0.212 0.445,-0.239 0.445,-0.268C0.445,-0.306 0.434,-0.335 0.412,-0.357C0.39,-0.378 0.358,-0.388 0.316,-0.388C0.289,-0.388 0.263,-0.383 0.239,-0.372C0.215,-0.361 0.194,-0.346 0.176,-0.327C0.157,-0.308 0.143,-0.286 0.132,-0.262C0.121,-0.237 0.116,-0.21 0.116,-0.182C0.116,-0.143 0.128,-0.113 0.151,-0.092C0.173,-0.07 0.205,-0.06 0.246,-0.06Z" style="fill-rule:nonzero;"/>
        </g>
        <g transform="matrix(2.83465,0,0,2.83465,83.8843,37.6446)">
            <path d="M0.186,-0.056C0.186,-0.075 0.193,-0.092 0.207,-0.106C0.22,-0.119 0.237,-0.126 0.256,-0.126C0.275,-0.126 0.292,-0.119 0.306,-0.106C0.319,-0.092 0.326,-0.075 0.326,-0.056C0.326,-0.037 0.319,-0.02 0.306,-0.007C0.292,0.007 0.275,0.014 0.256,0.014C0.237,0.014 0.22,0.007 0.207,-0.007C0.193,-0.02 0.186,-0.037 0.186,-0.056Z" style="fill-rule:nonzero;"/>
        </g>
        <g transform="matrix(2.83465,0,0,2.83465,85.6191,37.6446)">
            <path d="M0.073,-0.33L0.151,-0.7L0.573,-0.7L0.573,-0.622L0.217,-0.622L0.164,-0.372L0.176,-0.372C0.184,-0.385 0.194,-0.398 0.205,-0.411C0.216,-0.423 0.23,-0.434 0.245,-0.443C0.26,-0.452 0.277,-0.46 0.297,-0.466C0.316,-0.471 0.339,-0.474 0.364,-0.474C0.39,-0.474 0.414,-0.47 0.437,-0.461C0.459,-0.452 0.478,-0.44 0.495,-0.425C0.512,-0.409 0.525,-0.39 0.534,-0.369C0.543,-0.348 0.548,-0.325 0.548,-0.3C0.548,-0.255 0.541,-0.214 0.527,-0.176C0.512,-0.137 0.492,-0.104 0.465,-0.076C0.438,-0.048 0.406,-0.026 0.369,-0.01C0.332,0.006 0.29,0.014 0.244,0.014C0.209,0.014 0.179,0.009 0.153,-0C0.126,-0.009 0.104,-0.022 0.086,-0.039C0.068,-0.055 0.055,-0.074 0.046,-0.097C0.037,-0.119 0.032,-0.143 0.032,-0.17C0.032,-0.187 0.034,-0.205 0.038,-0.224L0.044,-0.252L0.128,-0.252L0.123,-0.23C0.121,-0.22 0.119,-0.211 0.118,-0.202C0.117,-0.193 0.116,-0.185 0.116,-0.177C0.116,-0.137 0.129,-0.108 0.154,-0.091C0.179,-0.073 0.213,-0.064 0.256,-0.064C0.286,-0.064 0.314,-0.07 0.339,-0.083C0.364,-0.096 0.385,-0.112 0.404,-0.133C0.422,-0.154 0.436,-0.177 0.446,-0.204C0.456,-0.23 0.461,-0.256 0.461,-0.283C0.461,-0.316 0.451,-0.343 0.431,-0.364C0.41,-0.385 0.381,-0.396 0.344,-0.396C0.329,-0.396 0.316,-0.394 0.304,-0.39C0.292,-0.386 0.281,-0.381 0.272,-0.375C0.263,-0.368 0.255,-0.361 0.248,-0.353C0.241,-0.345 0.236,-0.337 0.232,-0.33L0.073,-0.33Z" style="fill-rule:nonzero;"/>
        </g>
        <g transform="matrix(2.83465,0,0,2.83465,87.3539,37.6446)">
            <path d="M0.476,-0.372C0.477,-0.375 0.477,-0.378 0.478,-0.381C0.478,-0.384 0.478,-0.387 0.478,-0.39C0.478,-0.403 0.474,-0.414 0.467,-0.423C0.46,-0.432 0.448,-0.436 0.433,-0.436C0.414,-0.436 0.399,-0.429 0.388,-0.416C0.377,-0.403 0.368,-0.384 0.363,-0.36L0.286,-0L0.208,-0L0.287,-0.372C0.288,-0.379 0.289,-0.386 0.289,-0.393C0.289,-0.405 0.286,-0.415 0.28,-0.424C0.273,-0.432 0.262,-0.436 0.245,-0.436C0.224,-0.436 0.208,-0.428 0.197,-0.413C0.186,-0.398 0.179,-0.38 0.174,-0.36L0.097,-0L0.02,-0L0.125,-0.496L0.203,-0.496L0.194,-0.454L0.206,-0.454C0.213,-0.473 0.225,-0.488 0.24,-0.497C0.255,-0.505 0.272,-0.51 0.291,-0.51C0.312,-0.51 0.329,-0.505 0.342,-0.495C0.355,-0.485 0.363,-0.471 0.366,-0.454L0.378,-0.454C0.387,-0.472 0.399,-0.486 0.414,-0.496C0.429,-0.505 0.447,-0.51 0.468,-0.51C0.498,-0.51 0.521,-0.501 0.536,-0.484C0.551,-0.466 0.559,-0.443 0.559,-0.414C0.559,-0.408 0.559,-0.402 0.558,-0.395C0.557,-0.388 0.556,-0.381 0.555,-0.376L0.491,-0.078C0.49,-0.073 0.49,-0.069 0.493,-0.066C0.496,-0.063 0.499,-0.062 0.503,-0.062C0.507,-0.062 0.511,-0.063 0.514,-0.066L0.556,-0.097L0.598,-0.038L0.553,-0.004C0.546,0.001 0.537,0.006 0.526,0.009C0.515,0.012 0.503,0.014 0.492,0.014C0.482,0.014 0.472,0.013 0.463,0.01C0.454,0.007 0.445,0.003 0.438,-0.003C0.43,-0.008 0.424,-0.016 0.419,-0.025C0.414,-0.034 0.412,-0.045 0.412,-0.058C0.412,-0.061 0.412,-0.065 0.413,-0.068C0.413,-0.071 0.413,-0.075 0.414,-0.078L0.476,-0.372Z" style="fill-rule:nonzero;"/>
        </g>
        <g transform="matrix(2.83465,0,0,2.83465,89.0887,37.6446)">
            <path d="M0.476,-0.372C0.477,-0.375 0.477,-0.378 0.478,-0.381C0.478,-0.384 0.478,-0.387 0.478,-0.39C0.478,-0.403 0.474,-0.414 0.467,-0.423C0.46,-0.432 0.448,-0.436 0.433,-0.436C0.414,-0.436 0.399,-0.429 0.388,-0.416C0.377,-0.403 0.368,-0.384 0.363,-0.36L0.286,-0L0.208,-0L0.287,-0.372C0.288,-0.379 0.289,-0.386 0.289,-0.393C0.289,-0.405 0.286,-0.415 0.28,-0.424C0.273,-0.432 0.262,-0.436 0.245,-0.436C0.224,-0.436 0.208,-0.428 0.197,-0.413C0.186,-0.398 0.179,-0.38 0.174,-0.36L0.097,-0L0.02,-0L0.125,-0.496L0.203,-0.496L0.194,-0.454L0.206,-0.454C0.213,-0.473 0.225,-0.488 0.24,-0.497C0.255,-0.505 0.272,-0.51 0.291,-0.51C0.312,-0.51 0.329,-0.505 0.342,-0.495C0.355,-0.485 0.363,-0.471 0.366,-0.454L0.378,-0.454C0.387,-0.472 0.399,-0.486 0.414,-0.496C0.429,-0.505 0.447,-0.51 0.468,-0.51C0.498,-0.51 0.521,-0.501 0.536,-0.484C0.551,-0.466 0.559,-0.443 0.559,-0.414C0.559,-0.408 0.559,-0.402 0.558,-0.395C0.557,-0.388 0.556,-0.381 0.555,-0.376L0.491,-0.078C0.49,-0.073 0.49,-0.069 0.493,-0.066C0.496,-0.063 0.499,-0.062 0.503,-0.062C0.507,-0.062 0.511,-0.063 0.514,-0.066L0.556,-0.097L0.598,-0.038L0.553,-0.004C0.546,0.001 0.537,0.006 0.526,0.009C0.515,0.012 0.503,0.014 0.492,0.014C0.482,0.014 0.472,0.013 0.463,0.01C0.454,0.007 0.445,0.003 0.438,-0.003C0.43,-0.008 0.424,-0.016 0.419,-0.025C0.414,-0.034 0.412,-0.045 0.412,-0.058C0.412,-0.061 0.412,-0.065 0.413,-0.068C0.413,-0.071 0.413,-0.075 0.414,-0.078L0.476,-0.372Z" style="fill-rule:nonzero;"/>
        </g>
    </g>
    <circle cx="210.298" cy="107.556" r="25.335" style="fill:none;stroke:black;stroke-width:0.65px;"/>
    <circle cx="210.298" cy="107.556" r="9.673" style="fill:none;stroke:black;stroke-width:0.65px;"/>
    <path d="M216.865,97.285L215.819,100.185L218.396,98.493L216.865,97.285Z"/>
    <path d="M217.268,98.349C222.519,91.696 240.234,69.249 240.234,69.249L257.723,69.249" style="fill:none;stroke:black;stroke-width:0.65px;"/>
    <path d="M236.965,97.807L235.003,100.185L238,99.46L236.965,97.807Z"/>
    <path d="M236.986,98.944C240.343,96.844 246.78,92.815 246.78,92.815L254.56,92.815" style="fill:none;stroke:black;stroke-width:0.65px;"/>
    <g transform="matrix(2.2771,0,0,2.2771,75.1893,-16.645)">
        <g transform="matrix(2.83465,0,0,2.83465,80.7059,37.4014)">
            <path d="M0.454,-0.453L0.412,-0.41C0.43,-0.387 0.442,-0.365 0.449,-0.345C0.456,-0.325 0.459,-0.302 0.459,-0.276C0.459,-0.225 0.442,-0.18 0.406,-0.141C0.365,-0.096 0.315,-0.074 0.254,-0.074C0.23,-0.074 0.208,-0.077 0.189,-0.084C0.17,-0.091 0.148,-0.103 0.123,-0.122L0.081,-0.08L0.054,-0.105L0.098,-0.147C0.079,-0.172 0.067,-0.194 0.06,-0.214C0.053,-0.233 0.049,-0.256 0.049,-0.281C0.049,-0.336 0.069,-0.383 0.11,-0.424C0.15,-0.464 0.198,-0.484 0.253,-0.484C0.278,-0.484 0.301,-0.481 0.321,-0.474C0.34,-0.466 0.362,-0.454 0.386,-0.436L0.428,-0.478L0.454,-0.453ZM0.361,-0.411C0.338,-0.425 0.319,-0.435 0.304,-0.44C0.288,-0.446 0.271,-0.449 0.253,-0.449C0.207,-0.449 0.167,-0.432 0.134,-0.399C0.101,-0.365 0.084,-0.326 0.084,-0.279C0.084,-0.259 0.087,-0.242 0.093,-0.226C0.098,-0.21 0.108,-0.192 0.123,-0.172L0.361,-0.411ZM0.387,-0.385L0.147,-0.146C0.183,-0.122 0.218,-0.109 0.255,-0.109C0.301,-0.109 0.341,-0.126 0.374,-0.159C0.407,-0.192 0.424,-0.231 0.424,-0.277C0.424,-0.297 0.421,-0.315 0.416,-0.331C0.41,-0.347 0.401,-0.365 0.387,-0.385Z" style="fill-rule:nonzero;"/>
        </g>
        <g transform="matrix(2.83465,0,0,2.83465,82.1495,37.4014)">
            <path d="M0.489,-0.078L0.489,-0L0,-0L0.024,-0.12C0.031,-0.153 0.042,-0.181 0.057,-0.205C0.072,-0.228 0.092,-0.249 0.115,-0.266C0.138,-0.282 0.165,-0.297 0.196,-0.308C0.227,-0.319 0.261,-0.329 0.298,-0.336C0.324,-0.341 0.349,-0.348 0.374,-0.357C0.398,-0.366 0.42,-0.379 0.439,-0.394C0.458,-0.409 0.473,-0.427 0.485,-0.448C0.496,-0.469 0.502,-0.495 0.502,-0.524C0.502,-0.539 0.5,-0.554 0.495,-0.568C0.49,-0.581 0.482,-0.593 0.472,-0.603C0.461,-0.613 0.448,-0.621 0.431,-0.627C0.414,-0.633 0.395,-0.636 0.372,-0.636C0.321,-0.636 0.278,-0.62 0.244,-0.589C0.209,-0.558 0.186,-0.516 0.175,-0.464L0.166,-0.42L0.081,-0.42L0.091,-0.47C0.098,-0.504 0.109,-0.536 0.124,-0.566C0.139,-0.595 0.159,-0.621 0.183,-0.643C0.207,-0.665 0.236,-0.682 0.269,-0.695C0.302,-0.708 0.339,-0.714 0.382,-0.714C0.415,-0.714 0.444,-0.709 0.47,-0.7C0.496,-0.69 0.518,-0.677 0.535,-0.661C0.552,-0.644 0.566,-0.625 0.575,-0.604C0.584,-0.583 0.589,-0.561 0.589,-0.538C0.589,-0.46 0.566,-0.399 0.519,-0.355C0.472,-0.31 0.408,-0.28 0.325,-0.264C0.292,-0.257 0.263,-0.25 0.238,-0.241C0.213,-0.232 0.192,-0.222 0.175,-0.21C0.157,-0.198 0.142,-0.184 0.132,-0.167C0.121,-0.15 0.112,-0.131 0.107,-0.108L0.1,-0.078L0.489,-0.078Z" style="fill-rule:nonzero;"/>
        </g>
        <g transform="matrix(2.83465,0,0,2.83465,83.8843,37.4014)">
            <path d="M0.186,-0.056C0.186,-0.075 0.193,-0.092 0.207,-0.106C0.22,-0.119 0.237,-0.126 0.256,-0.126C0.275,-0.126 0.292,-0.119 0.306,-0.106C0.319,-0.092 0.326,-0.075 0.326,-0.056C0.326,-0.037 0.319,-0.02 0.306,-0.007C0.292,0.007 0.275,0.014 0.256,0.014C0.237,0.014 0.22,0.007 0.207,-0.007C0.193,-0.02 0.186,-0.037 0.186,-0.056Z" style="fill-rule:nonzero;"/>
        </g>
        <g transform="matrix(2.83465,0,0,2.83465,85.6191,37.4014)">
            <path d="M0.222,-0.078L0.346,-0.663L0.334,-0.663L0.158,-0.4L0.067,-0.4L0.067,-0.406L0.268,-0.7L0.438,-0.7L0.306,-0.078L0.504,-0.078L0.504,-0L0.024,-0L0.024,-0.078L0.222,-0.078Z" style="fill-rule:nonzero;"/>
        </g>
        <g transform="matrix(2.83465,0,0,2.83465,87.3539,37.4014)">
            <path d="M0.476,-0.372C0.477,-0.375 0.477,-0.378 0.478,-0.381C0.478,-0.384 0.478,-0.387 0.478,-0.39C0.478,-0.403 0.474,-0.414 0.467,-0.423C0.46,-0.432 0.448,-0.436 0.433,-0.436C0.414,-0.436 0.399,-0.429 0.388,-0.416C0.377,-0.403 0.368,-0.384 0.363,-0.36L0.286,-0L0.208,-0L0.287,-0.372C0.288,-0.379 0.289,-0.386 0.289,-0.393C0.289,-0.405 0.286,-0.415 0.28,-0.424C0.273,-0.432 0.262,-0.436 0.245,-0.436C0.224,-0.436 0.208,-0.428 0.197,-0.413C0.186,-0.398 0.179,-0.38 0.174,-0.36L0.097,-0L0.02,-0L0.125,-0.496L0.203,-0.496L0.194,-0.454L0.206,-0.454C0.213,-0.473 0.225,-0.488 0.24,-0.497C0.255,-0.505 0.272,-0.51 0.291,-0.51C0.312,-0.51 0.329,-0.505 0.342,-0.495C0.355,-0.485 0.363,-0.471 0.366,-0.454L0.378,-0.454C0.387,-0.472 0.399,-0.486 0.414,-0.496C0.429,-0.505 0.447,-0.51 0.468,-0.51C0.498,-0.51 0.521,-0.501 0.536,-0.484C0.551,-0.466 0.559,-0.443 0.559,-0.414C0.559,-0.408 0.559,-0.402 0.558,-0.395C0.557,-0.388 0.556,-0.381 0.555,-0.376L0.491,-0.078C0.49,-0.073 0.49,-0.069 0.493,-0.066C0.496,-0.063 0.499,-0.062 0.503,-0.062C0.507,-0.062 0.511,-0.063 0.514,-0.066L0.556,-0.097L0.598,-0.038L0.553,-0.004C0.546,0.001 0.537,0.006 0.526,0.009C0.515,0.012 0.503,0.014 0.492,0.014C0.482,0.014 0.472,0.013 0.463,0.01C0.454,0.007 0.445,0.003 0.438,-0.003C0.43,-0.008 0.424,-0.016 0.419,-0.025C0.414,-0.034 0.412,-0.045 0.412,-0.058C0.412,-0.061 0.412,-0.065 0.413,-0.068C0.413,-0.071 0.413,-0.075 0.414,-0.078L0.476,-0.372Z" style="fill-rule:nonzero;"/>
        </g>
        <g transform="matrix(2.83465,0,0,2.83465,89.0887,37.4014)">
            <path d="M0.476,-0.372C0.477,-0.375 0.477,-0.378 0.478,-0.381C0.478,-0.384 0.478,-0.387 0.478,-0.39C0.478,-0.403 0.474,-0.414 0.467,-0.423C0.46,-0.432 0.448,-0.436 0.433,-0.436C0.414,-0.436 0.399,-0.429 0.388,-0.416C0.377,-0.403 0.368,-0.384 0.363,-0.36L0.286,-0L0.208,-0L0.287,-0.372C0.288,-0.379 0.289,-0.386 0.289,-0.393C0.289,-0.405 0.286,-0.415 0.28,-0.424C0.273,-0.432 0.262,-0.436 0.245,-0.436C0.224,-0.436 0.208,-0.428 0.197,-0.413C0.186,-0.398 0.179,-0.38 0.174,-0.36L0.097,-0L0.02,-0L0.125,-0.496L0.203,-0.496L0.194,-0.454L0.206,-0.454C0.213,-0.473 0.225,-0.488 0.24,-0.497C0.255,-0.505 0.272,-0.51 0.291,-0.51C0.312,-0.51 0.329,-0.505 0.342,-0.495C0.355,-0.485 0.363,-0.471 0.366,-0.454L0.378,-0.454C0.387,-0.472 0.399,-0.486 0.414,-0.496C0.429,-0.505 0.447,-0.51 0.468,-0.51C0.498,-0.51 0.521,-0.501 0.536,-0.484C0.551,-0.466 0.559,-0.443 0.559,-0.414C0.559,-0.408 0.559,-0.402 0.558,-0.395C0.557,-0.388 0.556,-0.381 0.555,-0.376L0.491,-0.078C0.49,-0.073 0.49,-0.069 0.493,-0.066C0.496,-0.063 0.499,-0.062 0.503,-0.062C0.507,-0.062 0.511,-0.063 0.514,-0.066L0.556,-0.097L0.598,-0.038L0.553,-0.004C0.546,0.001 0.537,0.006 0.526,0.009C0.515,0.012 0.503,0.014 0.492,0.014C0.482,0.014 0.472,0.013 0.463,0.01C0.454,0.007 0.445,0.003 0.438,-0.003C0.43,-0.008 0.424,-0.016 0.419,-0.025C0.414,-0.034 0.412,-0.045 0.412,-0.058C0.412,-0.061 0.412,-0.065 0.413,-0.068C0.413,-0.071 0.413,-0.075 0.414,-0.078L0.476,-0.372Z" style="fill-rule:nonzero;"/>
        </g>
        <g transform="matrix(2.83465,0,0,2.83465,80.7059,40.236)">
            <path d="M0.187,-0.264L0.131,-0L0,-0L0.148,-0.7L0.398,-0.7C0.427,-0.7 0.454,-0.695 0.478,-0.686C0.501,-0.677 0.521,-0.664 0.538,-0.647C0.555,-0.63 0.568,-0.611 0.577,-0.588C0.586,-0.565 0.59,-0.541 0.59,-0.514C0.59,-0.477 0.584,-0.443 0.571,-0.412C0.558,-0.381 0.54,-0.355 0.517,-0.333C0.494,-0.311 0.466,-0.294 0.433,-0.282C0.4,-0.27 0.364,-0.264 0.324,-0.264L0.187,-0.264ZM0.214,-0.39L0.336,-0.39C0.37,-0.39 0.398,-0.4 0.421,-0.42C0.444,-0.44 0.455,-0.466 0.455,-0.498C0.455,-0.523 0.447,-0.542 0.432,-0.555C0.416,-0.568 0.395,-0.574 0.37,-0.574L0.253,-0.574L0.214,-0.39Z" style="fill-rule:nonzero;"/>
        </g>
        <g transform="matrix(2.83465,0,0,2.83465,82.4407,40.236)">
            <path d="M0.558,-0.31C0.558,-0.263 0.551,-0.22 0.538,-0.181C0.525,-0.141 0.505,-0.107 0.479,-0.078C0.453,-0.049 0.421,-0.027 0.382,-0.011C0.343,0.006 0.297,0.014 0.246,0.014C0.217,0.014 0.189,0.01 0.164,0.001C0.138,-0.008 0.115,-0.021 0.096,-0.038C0.077,-0.055 0.061,-0.075 0.05,-0.1C0.039,-0.125 0.033,-0.153 0.033,-0.184C0.033,-0.235 0.041,-0.281 0.057,-0.322C0.073,-0.362 0.095,-0.396 0.123,-0.424C0.15,-0.452 0.183,-0.473 0.221,-0.488C0.258,-0.503 0.299,-0.51 0.342,-0.51C0.373,-0.51 0.402,-0.505 0.429,-0.496C0.456,-0.486 0.478,-0.472 0.498,-0.455C0.517,-0.438 0.531,-0.417 0.542,-0.392C0.553,-0.367 0.558,-0.34 0.558,-0.31ZM0.265,-0.104C0.289,-0.105 0.311,-0.11 0.332,-0.12C0.352,-0.13 0.369,-0.143 0.384,-0.16C0.398,-0.176 0.409,-0.195 0.417,-0.217C0.425,-0.239 0.429,-0.262 0.429,-0.287C0.429,-0.322 0.42,-0.348 0.401,-0.366C0.382,-0.383 0.357,-0.392 0.326,-0.392C0.302,-0.392 0.28,-0.387 0.26,-0.377C0.24,-0.366 0.223,-0.353 0.208,-0.336C0.193,-0.319 0.182,-0.299 0.174,-0.277C0.166,-0.255 0.162,-0.232 0.162,-0.208C0.162,-0.174 0.171,-0.148 0.19,-0.131C0.209,-0.113 0.234,-0.104 0.265,-0.104Z" style="fill-rule:nonzero;"/>
        </g>
        <g transform="matrix(2.83465,0,0,2.83465,84.1755,40.236)">
            <path d="M0.322,-0.396C0.315,-0.396 0.307,-0.395 0.3,-0.394C0.292,-0.392 0.285,-0.389 0.278,-0.386C0.271,-0.383 0.266,-0.378 0.262,-0.373C0.257,-0.367 0.255,-0.36 0.255,-0.352C0.255,-0.338 0.263,-0.328 0.279,-0.321C0.295,-0.314 0.322,-0.309 0.361,-0.304C0.404,-0.299 0.439,-0.286 0.466,-0.265C0.493,-0.244 0.506,-0.213 0.506,-0.174C0.506,-0.115 0.486,-0.069 0.445,-0.036C0.404,-0.003 0.347,0.014 0.274,0.014C0.237,0.014 0.206,0.009 0.18,-0.002C0.153,-0.013 0.132,-0.026 0.115,-0.042C0.097,-0.058 0.085,-0.076 0.076,-0.095C0.067,-0.114 0.063,-0.133 0.062,-0.15L0.186,-0.18C0.188,-0.158 0.197,-0.139 0.214,-0.124C0.231,-0.108 0.256,-0.1 0.29,-0.1C0.313,-0.1 0.334,-0.104 0.351,-0.111C0.368,-0.118 0.377,-0.131 0.377,-0.15C0.377,-0.164 0.37,-0.175 0.357,-0.184C0.344,-0.192 0.319,-0.198 0.283,-0.201C0.235,-0.205 0.197,-0.219 0.169,-0.242C0.14,-0.265 0.126,-0.296 0.126,-0.335C0.126,-0.363 0.132,-0.388 0.144,-0.41C0.155,-0.432 0.171,-0.45 0.19,-0.465C0.209,-0.48 0.232,-0.491 0.258,-0.499C0.283,-0.506 0.31,-0.51 0.338,-0.51C0.373,-0.51 0.402,-0.505 0.425,-0.496C0.448,-0.487 0.467,-0.475 0.482,-0.461C0.497,-0.447 0.507,-0.432 0.515,-0.416C0.522,-0.399 0.526,-0.384 0.528,-0.37L0.406,-0.338C0.403,-0.356 0.395,-0.37 0.381,-0.381C0.367,-0.391 0.347,-0.396 0.322,-0.396Z" style="fill-rule:nonzero;"/>
        </g>
        <g transform="matrix(2.83465,0,0,2.83465,85.9103,40.236)">
            <path d="M0.38,-0.012C0.367,-0.003 0.353,0.004 0.339,0.008C0.325,0.012 0.311,0.014 0.298,0.014C0.283,0.014 0.269,0.012 0.256,0.007C0.243,0.002 0.231,-0.006 0.221,-0.015C0.211,-0.024 0.203,-0.035 0.198,-0.048C0.192,-0.061 0.189,-0.075 0.189,-0.091C0.189,-0.104 0.19,-0.115 0.193,-0.126L0.253,-0.377L0.243,-0.384L0.109,-0.292L0.046,-0.386L0.191,-0.484C0.204,-0.493 0.218,-0.5 0.232,-0.504C0.246,-0.508 0.26,-0.51 0.273,-0.51C0.288,-0.51 0.302,-0.507 0.315,-0.503C0.328,-0.498 0.34,-0.491 0.35,-0.482C0.36,-0.472 0.368,-0.462 0.374,-0.449C0.379,-0.436 0.382,-0.421 0.382,-0.405C0.382,-0.392 0.381,-0.381 0.378,-0.37L0.318,-0.119L0.328,-0.112L0.462,-0.204L0.525,-0.11L0.38,-0.012ZM0.467,-0.643C0.467,-0.63 0.464,-0.617 0.46,-0.606C0.455,-0.594 0.448,-0.584 0.439,-0.576C0.43,-0.567 0.42,-0.561 0.409,-0.556C0.397,-0.551 0.385,-0.548 0.372,-0.548C0.359,-0.548 0.346,-0.551 0.335,-0.556C0.324,-0.561 0.314,-0.567 0.305,-0.576C0.296,-0.584 0.29,-0.594 0.285,-0.606C0.28,-0.617 0.277,-0.63 0.277,-0.643C0.277,-0.656 0.28,-0.669 0.285,-0.681C0.29,-0.692 0.296,-0.702 0.305,-0.711C0.314,-0.719 0.324,-0.725 0.335,-0.731C0.346,-0.736 0.359,-0.738 0.372,-0.738C0.385,-0.738 0.397,-0.736 0.409,-0.731C0.42,-0.725 0.43,-0.719 0.439,-0.711C0.448,-0.702 0.455,-0.692 0.46,-0.681C0.464,-0.669 0.467,-0.656 0.467,-0.643Z" style="fill-rule:nonzero;"/>
        </g>
        <g transform="matrix(2.83465,0,0,2.83465,87.6451,40.236)">
            <path d="M0.218,-0.376L0.078,-0.376L0.078,-0.496L0.244,-0.496L0.29,-0.714L0.416,-0.714L0.37,-0.496L0.542,-0.496L0.542,-0.376L0.344,-0.376L0.288,-0.119L0.298,-0.112L0.432,-0.204L0.495,-0.11L0.35,-0.012C0.325,0.005 0.298,0.014 0.269,0.014C0.254,0.014 0.24,0.012 0.227,0.007C0.214,0.002 0.202,-0.006 0.192,-0.015C0.182,-0.024 0.174,-0.036 0.168,-0.049C0.162,-0.062 0.159,-0.077 0.159,-0.094C0.159,-0.099 0.159,-0.104 0.16,-0.109C0.161,-0.113 0.162,-0.119 0.163,-0.126L0.218,-0.376Z" style="fill-rule:nonzero;"/>
        </g>
        <g transform="matrix(2.83465,0,0,2.83465,89.3799,40.236)">
            <path d="M0.38,-0.012C0.367,-0.003 0.353,0.004 0.339,0.008C0.325,0.012 0.311,0.014 0.298,0.014C0.283,0.014 0.269,0.012 0.256,0.007C0.243,0.002 0.231,-0.006 0.221,-0.015C0.211,-0.024 0.203,-0.035 0.198,-0.048C0.192,-0.061 0.189,-0.075 0.189,-0.091C0.189,-0.104 0.19,-0.115 0.193,-0.126L0.253,-0.377L0.243,-0.384L0.109,-0.292L0.046,-0.386L0.191,-0.484C0.204,-0.493 0.218,-0.5 0.232,-0.504C0.246,-0.508 0.26,-0.51 0.273,-0.51C0.288,-0.51 0.302,-0.507 0.315,-0.503C0.328,-0.498 0.34,-0.491 0.35,-0.482C0.36,-0.472 0.368,-0.462 0.374,-0.449C0.379,-0.436 0.382,-0.421 0.382,-0.405C0.382,-0.392 0.381,-0.381 0.378,-0.37L0.318,-0.119L0.328,-0.112L0.462,-0.204L0.525,-0.11L0.38,-0.012ZM0.467,-0.643C0.467,-0.63 0.464,-0.617 0.46,-0.606C0.455,-0.594 0.448,-0.584 0.439,-0.576C0.43,-0.567 0.42,-0.561 0.409,-0.556C0.397,-0.551 0.385,-0.548 0.372,-0.548C0.359,-0.548 0.346,-0.551 0.335,-0.556C0.324,-0.561 0.314,-0.567 0.305,-0.576C0.296,-0.584 0.29,-0.594 0.285,-0.606C0.28,-0.617 0.277,-0.63 0.277,-0.643C0.277,-0.656 0.28,-0.669 0.285,-0.681C0.29,-0.692 0.296,-0.702 0.305,-0.711C0.314,-0.719 0.324,-0.725 0.335,-0.731C0.346,-0.736 0.359,-0.738 0.372,-0.738C0.385,-0.738 0.397,-0.736 0.409,-0.731C0.42,-0.725 0.43,-0.719 0.439,-0.711C0.448,-0.702 0.455,-0.692 0.46,-0.681C0.464,-0.669 0.467,-0.656 0.467,-0.643Z" style="fill-rule:nonzero;"/>
        </g>
        <g transform="matrix(2.83465,0,0,2.83465,91.1147,40.236)">
            <path d="M0.135,-0.374L0.123,-0.378L0.084,-0.329L-0.003,-0.4L0.044,-0.46C0.057,-0.477 0.073,-0.489 0.091,-0.498C0.108,-0.506 0.127,-0.51 0.146,-0.51C0.16,-0.51 0.174,-0.508 0.187,-0.503C0.2,-0.498 0.212,-0.492 0.223,-0.483C0.233,-0.474 0.241,-0.462 0.248,-0.448C0.255,-0.434 0.259,-0.418 0.26,-0.4L0.281,-0.06L0.299,-0.06L0.501,-0.504L0.614,-0.449L0.404,-0L0.161,-0L0.135,-0.374Z" style="fill-rule:nonzero;"/>
        </g>
        <g transform="matrix(2.83465,0,0,2.83465,92.8495,40.236)">
            <path d="M0.165,-0.207C0.164,-0.202 0.163,-0.196 0.163,-0.19C0.163,-0.166 0.172,-0.146 0.191,-0.13C0.209,-0.114 0.233,-0.106 0.263,-0.106C0.294,-0.106 0.319,-0.112 0.338,-0.123C0.357,-0.134 0.371,-0.148 0.381,-0.163L0.481,-0.1C0.473,-0.087 0.463,-0.073 0.45,-0.06C0.436,-0.047 0.421,-0.035 0.402,-0.024C0.383,-0.012 0.36,-0.004 0.335,0.004C0.309,0.011 0.279,0.014 0.245,0.014C0.214,0.014 0.186,0.009 0.161,-0.001C0.135,-0.01 0.113,-0.024 0.095,-0.041C0.076,-0.058 0.062,-0.078 0.052,-0.102C0.041,-0.125 0.036,-0.151 0.036,-0.18C0.036,-0.225 0.043,-0.268 0.057,-0.308C0.07,-0.348 0.09,-0.383 0.116,-0.413C0.142,-0.443 0.174,-0.467 0.212,-0.484C0.25,-0.501 0.294,-0.51 0.343,-0.51C0.378,-0.51 0.408,-0.505 0.434,-0.494C0.459,-0.483 0.48,-0.468 0.497,-0.45C0.514,-0.431 0.526,-0.41 0.535,-0.387C0.543,-0.364 0.547,-0.34 0.547,-0.315C0.547,-0.307 0.547,-0.299 0.546,-0.291C0.545,-0.282 0.543,-0.271 0.54,-0.258L0.529,-0.207L0.165,-0.207ZM0.323,-0.396C0.292,-0.396 0.265,-0.388 0.242,-0.373C0.219,-0.357 0.201,-0.338 0.19,-0.315L0.424,-0.315C0.424,-0.34 0.416,-0.36 0.401,-0.375C0.385,-0.389 0.359,-0.396 0.323,-0.396Z" style="fill-rule:nonzero;"/>
        </g>
    </g>
    <g transform="matrix(2.2771,0,0,2.2771,73.9473,9.39916)">
        <g transform="matrix(2.83465,0,0,2.83465,80.7059,37.6446)">
            <path d="M0.454,-0.453L0.412,-0.41C0.43,-0.387 0.442,-0.365 0.449,-0.345C0.456,-0.325 0.459,-0.302 0.459,-0.276C0.459,-0.225 0.442,-0.18 0.406,-0.141C0.365,-0.096 0.315,-0.074 0.254,-0.074C0.23,-0.074 0.208,-0.077 0.189,-0.084C0.17,-0.091 0.148,-0.103 0.123,-0.122L0.081,-0.08L0.054,-0.105L0.098,-0.147C0.079,-0.172 0.067,-0.194 0.06,-0.214C0.053,-0.233 0.049,-0.256 0.049,-0.281C0.049,-0.336 0.069,-0.383 0.11,-0.424C0.15,-0.464 0.198,-0.484 0.253,-0.484C0.278,-0.484 0.301,-0.481 0.321,-0.474C0.34,-0.466 0.362,-0.454 0.386,-0.436L0.428,-0.478L0.454,-0.453ZM0.361,-0.411C0.338,-0.425 0.319,-0.435 0.304,-0.44C0.288,-0.446 0.271,-0.449 0.253,-0.449C0.207,-0.449 0.167,-0.432 0.134,-0.399C0.101,-0.365 0.084,-0.326 0.084,-0.279C0.084,-0.259 0.087,-0.242 0.093,-0.226C0.098,-0.21 0.108,-0.192 0.123,-0.172L0.361,-0.411ZM0.387,-0.385L0.147,-0.146C0.183,-0.122 0.218,-0.109 0.255,-0.109C0.301,-0.109 0.341,-0.126 0.374,-0.159C0.407,-0.192 0.424,-0.231 0.424,-0.277C0.424,-0.297 0.421,-0.315 0.416,-0.331C0.41,-0.347 0.401,-0.365 0.387,-0.385Z" style="fill-rule:nonzero;"/>
        </g>
        <g transform="matrix(2.83465,0,0,2.83465,82.1495,37.6446)">
            <path d="M0.073,-0.33L0.151,-0.7L0.573,-0.7L0.573,-0.622L0.217,-0.622L0.164,-0.372L0.176,-0.372C0.184,-0.385 0.194,-0.398 0.205,-0.411C0.216,-0.423 0.23,-0.434 0.245,-0.443C0.26,-0.452 0.277,-0.46 0.297,-0.466C0.316,-0.471 0.339,-0.474 0.364,-0.474C0.39,-0.474 0.414,-0.47 0.437,-0.461C0.459,-0.452 0.478,-0.44 0.495,-0.425C0.512,-0.409 0.525,-0.39 0.534,-0.369C0.543,-0.348 0.548,-0.325 0.548,-0.3C0.548,-0.255 0.541,-0.214 0.527,-0.176C0.512,-0.137 0.492,-0.104 0.465,-0.076C0.438,-0.048 0.406,-0.026 0.369,-0.01C0.332,0.006 0.29,0.014 0.244,0.014C0.209,0.014 0.179,0.009 0.153,-0C0.126,-0.009 0.104,-0.022 0.086,-0.039C0.068,-0.055 0.055,-0.074 0.046,-0.097C0.037,-0.119 0.032,-0.143 0.032,-0.17C0.032,-0.187 0.034,-0.205 0.038,-0.224L0.044,-0.252L0.128,-0.252L0.123,-0.23C0.121,-0.22 0.119,-0.211 0.118,-0.202C0.117,-0.193 0.116,-0.185 0.116,-0.177C0.116,-0.137 0.129,-0.108 0.154,-0.091C0.179,-0.073 0.213,-0.064 0.256,-0.064C0.286,-0.064 0.314,-0.07 0.339,-0.083C0.364,-0.096 0.385,-0.112 0.404,-0.133C0.422,-0.154 0.436,-0.177 0.446,-0.204C0.456,-0.23 0.461,-0.256 0.461,-0.283C0.461,-0.316 0.451,-0.343 0.431,-0.364C0.41,-0.385 0.381,-0.396 0.344,-0.396C0.329,-0.396 0.316,-0.394 0.304,-0.39C0.292,-0.386 0.281,-0.381 0.272,-0.375C0.263,-0.368 0.255,-0.361 0.248,-0.353C0.241,-0.345 0.236,-0.337 0.232,-0.33L0.073,-0.33Z" style="fill-rule:nonzero;"/>
        </g>
        <g transform="matrix(2.83465,0,0,2.83465,83.8843,37.6446)">
            <path d="M0.186,-0.056C0.186,-0.075 0.193,-0.092 0.207,-0.106C0.22,-0.119 0.237,-0.126 0.256,-0.126C0.275,-0.126 0.292,-0.119 0.306,-0.106C0.319,-0.092 0.326,-0.075 0.326,-0.056C0.326,-0.037 0.319,-0.02 0.306,-0.007C0.292,0.007 0.275,0.014 0.256,0.014C0.237,0.014 0.22,0.007 0.207,-0.007C0.193,-0.02 0.186,-0.037 0.186,-0.056Z" style="fill-rule:nonzero;"/>
        </g>
        <g transform="matrix(2.83465,0,0,2.83465,85.6191,37.6446)">
            <path d="M0.073,-0.33L0.151,-0.7L0.573,-0.7L0.573,-0.622L0.217,-0.622L0.164,-0.372L0.176,-0.372C0.184,-0.385 0.194,-0.398 0.205,-0.411C0.216,-0.423 0.23,-0.434 0.245,-0.443C0.26,-0.452 0.277,-0.46 0.297,-0.466C0.316,-0.471 0.339,-0.474 0.364,-0.474C0.39,-0.474 0.414,-0.47 0.437,-0.461C0.459,-0.452 0.478,-0.44 0.495,-0.425C0.512,-0.409 0.525,-0.39 0.534,-0.369C0.543,-0.348 0.548,-0.325 0.548,-0.3C0.548,-0.255 0.541,-0.214 0.527,-0.176C0.512,-0.137 0.492,-0.104 0.465,-0.076C0.438,-0.048 0.406,-0.026 0.369,-0.01C0.332,0.006 0.29,0.014 0.244,0.014C0.209,0.014 0.179,0.009 0.153,-0C0.126,-0.009 0.104,-0.022 0.086,-0.039C0.068,-0.055 0.055,-0.074 0.046,-0.097C0.037,-0.119 0.032,-0.143 0.032,-0.17C0.032,-0.187 0.034,-0.205 0.038,-0.224L0.044,-0.252L0.128,-0.252L0.123,-0.23C0.121,-0.22 0.119,-0.211 0.118,-0.202C0.117,-0.193 0.116,-0.185 0.116,-0.177C0.116,-0.137 0.129,-0.108 0.154,-0.091C0.179,-0.073 0.213,-0.064 0.256,-0.064C0.286,-0.064 0.314,-0.07 0.339,-0.083C0.364,-0.096 0.385,-0.112 0.404,-0.133C0.422,-0.154 0.436,-0.177 0.446,-0.204C0.456,-0.23 0.461,-0.256 0.461,-0.283C0.461,-0.316 0.451,-0.343 0.431,-0.364C0.41,-0.385 0.381,-0.396 0.344,-0.396C0.329,-0.396 0.316,-0.394 0.304,-0.39C0.292,-0.386 0.281,-0.381 0.272,-0.375C0.263,-0.368 0.255,-0.361 0.248,-0.353C0.241,-0.345 0.236,-0.337 0.232,-0.33L0.073,-0.33Z" style="fill-rule:nonzero;"/>
        </g>
        <g transform="matrix(2.83465,0,0,2.83465,87.3539,37.6446)">
            <path d="M0.476,-0.372C0.477,-0.375 0.477,-0.378 0.478,-0.381C0.478,-0.384 0.478,-0.387 0.478,-0.39C0.478,-0.403 0.474,-0.414 0.467,-0.423C0.46,-0.432 0.448,-0.436 0.433,-0.436C0.414,-0.436 0.399,-0.429 0.388,-0.416C0.377,-0.403 0.368,-0.384 0.363,-0.36L0.286,-0L0.208,-0L0.287,-0.372C0.288,-0.379 0.289,-0.386 0.289,-0.393C0.289,-0.405 0.286,-0.415 0.28,-0.424C0.273,-0.432 0.262,-0.436 0.245,-0.436C0.224,-0.436 0.208,-0.428 0.197,-0.413C0.186,-0.398 0.179,-0.38 0.174,-0.36L0.097,-0L0.02,-0L0.125,-0.496L0.203,-0.496L0.194,-0.454L0.206,-0.454C0.213,-0.473 0.225,-0.488 0.24,-0.497C0.255,-0.505 0.272,-0.51 0.291,-0.51C0.312,-0.51 0.329,-0.505 0.342,-0.495C0.355,-0.485 0.363,-0.471 0.366,-0.454L0.378,-0.454C0.387,-0.472 0.399,-0.486 0.414,-0.496C0.429,-0.505 0.447,-0.51 0.468,-0.51C0.498,-0.51 0.521,-0.501 0.536,-0.484C0.551,-0.466 0.559,-0.443 0.559,-0.414C0.559,-0.408 0.559,-0.402 0.558,-0.395C0.557,-0.388 0.556,-0.381 0.555,-0.376L0.491,-0.078C0.49,-0.073 0.49,-0.069 0.493,-0.066C0.496,-0.063 0.499,-0.062 0.503,-0.062C0.507,-0.062 0.511,-0.063 0.514,-0.066L0.556,-0.097L0.598,-0.038L0.553,-0.004C0.546,0.001 0.537,0.006 0.526,0.009C0.515,0.012 0.503,0.014 0.492,0.014C0.482,0.014 0.472,0.013 0.463,0.01C0.454,0.007 0.445,0.003 0.438,-0.003C0.43,-0.008 0.424,-0.016 0.419,-0.025C0.414,-0.034 0.412,-0.045 0.412,-0.058C0.412,-0.061 0.412,-0.065 0.413,-0.068C0.413,-0.071 0.413,-0.075 0.414,-0.078L0.476,-0.372Z" style="fill-rule:nonzero;"/>
        </g>
        <g transform="matrix(2.83465,0,0,2.83465,89.0887,37.6446)">
            <path d="M0.476,-0.372C0.477,-0.375 0.477,-0.378 0.478,-0.381C0.478,-0.384 0.478,-0.387 0.478,-0.39C0.478,-0.403 0.474,-0.414 0.467,-0.423C0.46,-0.432 0.448,-0.436 0.433,-0.436C0.414,-0.436 0.399,-0.429 0.388,-0.416C0.377,-0.403 0.368,-0.384 0.363,-0.36L0.286,-0L0.208,-0L0.287,-0.372C0.288,-0.379 0.289,-0.386 0.289,-0.393C0.289,-0.405 0.286,-0.415 0.28,-0.424C0.273,-0.432 0.262,-0.436 0.245,-0.436C0.224,-0.436 0.208,-0.428 0.197,-0.413C0.186,-0.398 0.179,-0.38 0.174,-0.36L0.097,-0L0.02,-0L0.125,-0.496L0.203,-0.496L0.194,-0.454L0.206,-0.454C0.213,-0.473 0.225,-0.488 0.24,-0.497C0.255,-0.505 0.272,-0.51 0.291,-0.51C0.312,-0.51 0.329,-0.505 0.342,-0.495C0.355,-0.485 0.363,-0.471 0.366,-0.454L0.378,-0.454C0.387,-0.472 0.399,-0.486 0.414,-0.496C0.429,-0.505 0.447,-0.51 0.468,-0.51C0.498,-0.51 0.521,-0.501 0.536,-0.484C0.551,-0.466 0.559,-0.443 0.559,-0.414C0.559,-0.408 0.559,-0.402 0.558,-0.395C0.557,-0.388 0.556,-0.381 0.555,-0.376L0.491,-0.078C0.49,-0.073 0.49,-0.069 0.493,-0.066C0.496,-0.063 0.499,-0.062 0.503,-0.062C0.507,-0.062 0.511,-0.063 0.514,-0.066L0.556,-0.097L0.598,-0.038L0.553,-0.004C0.546,0.001 0.537,0.006 0.526,0.009C0.515,0.012 0.503,0.014 0.492,0.014C0.482,0.014 0.472,0.013 0.463,0.01C0.454,0.007 0.445,0.003 0.438,-0.003C0.43,-0.008 0.424,-0.016 0.419,-0.025C0.414,-0.034 0.412,-0.045 0.412,-0.058C0.412,-0.061 0.412,-0.065 0.413,-0.068C0.413,-0.071 0.413,-0.075 0.414,-0.078L0.476,-0.372Z" style="fill-rule:nonzero;"/>
        </g>
    </g>
    <path d="M88.896,45.519L87.984,45.519L86.754,51.268C86.653,51.747 86.512,52.173 86.333,52.546C86.153,52.919 85.923,53.237 85.642,53.499C85.361,53.762 85.027,53.962 84.64,54.1C84.253,54.239 83.802,54.308 83.286,54.308C82.475,54.308 81.844,54.096 81.392,53.672C80.941,53.248 80.715,52.682 80.715,51.972C80.715,51.733 80.743,51.479 80.798,51.212L80.964,50.466L82.125,50.466L81.959,51.212C81.904,51.461 81.876,51.691 81.876,51.903C81.876,52.788 82.397,53.23 83.438,53.23C84.083,53.23 84.573,53.043 84.909,52.67C85.246,52.297 85.478,51.811 85.607,51.212L86.823,45.519L85.745,45.519L85.745,44.441L88.896,44.441L88.896,45.519Z" style="fill-rule:nonzero;"/>
    <path d="M93.553,53.036C93.267,53.525 92.929,53.859 92.537,54.038C92.146,54.218 91.734,54.308 91.301,54.308C90.932,54.308 90.6,54.241 90.306,54.107C90.011,53.974 89.762,53.787 89.559,53.548C89.357,53.308 89.2,53.02 89.09,52.684C88.979,52.348 88.924,51.977 88.924,51.572C88.924,50.991 89.007,50.429 89.172,49.886C89.338,49.342 89.58,48.863 89.898,48.449C90.216,48.034 90.61,47.7 91.08,47.447C91.549,47.193 92.093,47.067 92.71,47.067C93.18,47.067 93.581,47.175 93.912,47.391C94.244,47.608 94.461,47.923 94.562,48.338L94.728,48.338L94.949,47.26L96.027,47.26L94.811,52.953C94.792,53.036 94.801,53.099 94.838,53.14C94.875,53.181 94.926,53.202 94.99,53.202C95.055,53.202 95.119,53.179 95.184,53.133L95.681,52.774L96.262,53.589L95.64,54.059C95.538,54.133 95.412,54.193 95.26,54.239C95.108,54.285 94.953,54.308 94.797,54.308C94.659,54.308 94.525,54.289 94.396,54.252C94.267,54.216 94.15,54.158 94.044,54.08C93.938,54.001 93.852,53.9 93.788,53.776C93.724,53.651 93.691,53.497 93.691,53.313C93.691,53.267 93.694,53.221 93.698,53.175C93.703,53.129 93.71,53.082 93.719,53.036L93.553,53.036ZM91.632,53.285C92.001,53.285 92.349,53.2 92.676,53.029C93.003,52.859 93.288,52.626 93.532,52.332C93.776,52.037 93.968,51.689 94.106,51.288C94.244,50.888 94.313,50.452 94.313,49.982C94.313,49.411 94.184,48.953 93.926,48.607C93.668,48.262 93.267,48.089 92.724,48.089C92.291,48.089 91.911,48.181 91.584,48.366C91.257,48.55 90.978,48.796 90.748,49.105C90.518,49.414 90.345,49.771 90.23,50.176C90.114,50.581 90.057,51 90.057,51.433C90.057,52.041 90.19,52.502 90.458,52.815C90.725,53.129 91.116,53.285 91.632,53.285Z" style="fill-rule:nonzero;"/>
    <path d="M104.263,51.765C104.143,52.115 103.977,52.444 103.765,52.753C103.553,53.062 103.289,53.331 102.971,53.562C102.653,53.792 102.284,53.974 101.865,54.107C101.446,54.241 100.974,54.308 100.449,54.308C100.016,54.308 99.622,54.241 99.267,54.107C98.913,53.974 98.611,53.783 98.362,53.534C98.113,53.285 97.92,52.986 97.782,52.636C97.643,52.286 97.574,51.894 97.574,51.461C97.574,50.862 97.678,50.296 97.885,49.761C98.093,49.227 98.385,48.759 98.763,48.359C99.141,47.958 99.597,47.642 100.131,47.412C100.665,47.182 101.259,47.067 101.914,47.067C102.337,47.067 102.72,47.127 103.06,47.246C103.401,47.366 103.692,47.534 103.931,47.751C104.171,47.967 104.355,48.225 104.484,48.525C104.613,48.824 104.677,49.153 104.677,49.513L104.677,49.575C104.677,49.598 104.673,49.646 104.663,49.72L103.558,49.886C103.567,49.83 103.572,49.789 103.572,49.761L103.572,49.665C103.572,49.443 103.537,49.239 103.468,49.05C103.399,48.861 103.289,48.695 103.136,48.552C102.984,48.409 102.791,48.297 102.556,48.214C102.321,48.131 102.042,48.089 101.72,48.089C101.287,48.089 100.889,48.177 100.525,48.352C100.161,48.527 99.843,48.764 99.571,49.063C99.299,49.363 99.088,49.711 98.936,50.107C98.784,50.503 98.708,50.917 98.708,51.35C98.708,52.005 98.883,52.491 99.233,52.808C99.583,53.126 100.062,53.285 100.67,53.285C101.038,53.285 101.365,53.232 101.651,53.126C101.937,53.02 102.185,52.882 102.397,52.712C102.609,52.541 102.784,52.345 102.922,52.124C103.06,51.903 103.166,51.673 103.24,51.433L104.263,51.765Z" style="fill-rule:nonzero;"/>
    <path d="M109.528,44.261L108.298,50.107L108.464,50.107L111.891,47.094L112.554,47.799L109.5,50.48L109.5,50.729L111.283,53.161C111.338,53.225 111.398,53.257 111.462,53.257C111.518,53.257 111.578,53.234 111.642,53.188L112.305,52.705L112.886,53.52L112.264,53.99C112.135,54.091 112.001,54.17 111.863,54.225C111.725,54.28 111.578,54.308 111.421,54.308C111.237,54.308 111.059,54.262 110.889,54.17C110.718,54.077 110.555,53.925 110.398,53.714L108.491,51.102L108.077,51.102L107.441,54.114L106.363,54.114L108.45,44.261L109.528,44.261Z" style="fill-rule:nonzero;"/>
    <path d="M195.553,50.134L194.71,54.114L193.55,54.114L195.609,44.441L198.759,44.441C199.174,44.441 199.545,44.499 199.872,44.614C200.199,44.729 200.475,44.888 200.701,45.091C200.927,45.293 201.102,45.537 201.226,45.823C201.35,46.109 201.412,46.417 201.412,46.749C201.412,47.228 201.33,47.675 201.164,48.089C200.998,48.504 200.756,48.863 200.438,49.167C200.12,49.471 199.736,49.708 199.284,49.879C198.833,50.049 198.326,50.134 197.764,50.134L195.553,50.134ZM195.788,49.057L197.861,49.057C198.202,49.057 198.517,49.008 198.808,48.911C199.098,48.815 199.347,48.677 199.554,48.497C199.761,48.317 199.925,48.096 200.044,47.834C200.164,47.571 200.224,47.279 200.224,46.956C200.224,46.468 200.084,46.106 199.803,45.871C199.522,45.636 199.119,45.519 198.593,45.519L196.534,45.519L195.788,49.057Z" style="fill-rule:nonzero;"/>
    <path d="M206.042,45.629C206.069,45.519 206.058,45.434 206.007,45.374C205.957,45.314 205.885,45.284 205.793,45.284C205.729,45.284 205.66,45.307 205.586,45.353L203.969,46.459L203.416,45.643L205.047,44.538C205.194,44.436 205.346,44.363 205.503,44.317C205.66,44.271 205.816,44.248 205.973,44.248C206.277,44.248 206.546,44.34 206.781,44.524C207.016,44.708 207.134,44.994 207.134,45.381C207.134,45.537 207.115,45.685 207.078,45.823L205.406,52.912C205.379,53.023 205.39,53.11 205.441,53.175C205.491,53.239 205.558,53.271 205.641,53.271C205.706,53.271 205.775,53.248 205.848,53.202L207.438,52.124L207.99,52.94L206.401,54.018C206.106,54.211 205.798,54.308 205.475,54.308C205.171,54.308 204.902,54.216 204.667,54.031C204.432,53.847 204.314,53.562 204.314,53.175C204.314,53.018 204.333,52.871 204.37,52.732L206.042,45.629Z" style="fill-rule:nonzero;"/>
    <path d="M215.342,52.953L215.176,52.953C214.927,53.396 214.61,53.732 214.223,53.962C213.836,54.193 213.366,54.308 212.813,54.308C212.205,54.308 211.712,54.135 211.334,53.79C210.957,53.444 210.768,52.93 210.768,52.249C210.768,52.111 210.775,51.97 210.789,51.827C210.802,51.684 210.832,51.526 210.878,51.35L211.79,47.26L212.868,47.26L211.984,51.212C211.919,51.498 211.887,51.765 211.887,52.014C211.887,52.861 212.343,53.285 213.255,53.285C213.891,53.285 214.432,53.062 214.879,52.615C215.326,52.168 215.632,51.572 215.798,50.825L216.599,47.26L217.677,47.26L216.42,52.953C216.401,53.027 216.411,53.087 216.447,53.133C216.484,53.179 216.535,53.202 216.599,53.202C216.664,53.202 216.728,53.179 216.793,53.133L217.387,52.705L217.968,53.506L217.277,54.031C217.166,54.123 217.03,54.193 216.869,54.239C216.708,54.285 216.544,54.308 216.378,54.308C216.24,54.308 216.107,54.289 215.978,54.252C215.849,54.216 215.733,54.156 215.632,54.073C215.531,53.99 215.45,53.886 215.39,53.762C215.33,53.638 215.3,53.488 215.3,53.313C215.3,53.267 215.303,53.221 215.307,53.175L215.342,52.953Z" style="fill-rule:nonzero;"/>
    <path d="M224.214,53.147L224.048,53.147C223.781,53.534 223.447,53.824 223.046,54.018C222.645,54.211 222.205,54.308 221.726,54.308C221.33,54.308 220.969,54.241 220.641,54.107C220.314,53.974 220.036,53.787 219.805,53.548C219.575,53.308 219.398,53.018 219.273,52.677C219.149,52.336 219.087,51.959 219.087,51.544C219.087,50.908 219.181,50.319 219.37,49.775C219.559,49.232 219.826,48.759 220.172,48.359C220.517,47.958 220.932,47.642 221.415,47.412C221.899,47.182 222.431,47.067 223.011,47.067C223.555,47.067 224.004,47.184 224.359,47.419C224.713,47.654 224.946,47.96 225.057,48.338L225.222,48.338L225.457,47.26L226.535,47.26L224.725,55.8C224.651,56.113 224.495,56.371 224.255,56.574C224.016,56.777 223.739,56.878 223.426,56.878L219.253,56.878L219.253,55.883L223.246,55.883C223.504,55.883 223.661,55.745 223.716,55.469L224.214,53.147ZM221.961,53.285C222.385,53.285 222.772,53.191 223.122,53.002C223.472,52.813 223.774,52.564 224.027,52.256C224.28,51.947 224.476,51.595 224.614,51.198C224.753,50.802 224.822,50.402 224.822,49.996C224.822,49.425 224.66,48.964 224.338,48.614C224.016,48.264 223.583,48.089 223.039,48.089C222.606,48.089 222.215,48.181 221.864,48.366C221.514,48.55 221.217,48.796 220.973,49.105C220.729,49.414 220.54,49.771 220.407,50.176C220.273,50.581 220.206,51 220.206,51.433C220.206,52.005 220.356,52.456 220.655,52.788C220.955,53.119 221.39,53.285 221.961,53.285Z" style="fill-rule:nonzero;"/>
</svg>
